<svg width="43" height="44" viewBox="0 0 43 44" fill="none" xmlns="http://www.w3.org/2000/svg">
<path d="M21.3408 0.54834C9.61082 0.54834 0.0908203 10.0683 0.0908203 21.7983C0.0908203 33.5283 9.61082 43.0483 21.3408 43.0483C33.0708 43.0483 42.5908 33.5283 42.5908 21.7983C42.5908 10.0683 33.0708 0.54834 21.3408 0.54834ZM21.3408 6.92334C24.8683 6.92334 27.7158 9.77084 27.7158 13.2983C27.7158 16.8258 24.8683 19.6733 21.3408 19.6733C17.8133 19.6733 14.9658 16.8258 14.9658 13.2983C14.9658 9.77084 17.8133 6.92334 21.3408 6.92334ZM21.3408 37.0983C16.0283 37.0983 11.3321 34.3783 8.59082 30.2558C8.65457 26.0271 17.0908 23.7108 21.3408 23.7108C25.5696 23.7108 34.0271 26.0271 34.0908 30.2558C31.3496 34.3783 26.6533 37.0983 21.3408 37.0983Z" fill="#0E1330"/>
</svg>
