<svg width="69" height="114" viewBox="0 0 69 114" fill="none" xmlns="http://www.w3.org/2000/svg">
<path d="M68.3666 1.15608C67.9873 0.73852 67.4491 0.500395 66.8847 0.50002H2.79824C1.69219 0.495145 0.791534 1.38652 0.786652 2.49108C0.786277 2.5569 0.789282 2.62252 0.795478 2.68796L6.80357 66.6879C6.88111 67.509 7.45526 68.1982 8.24945 68.424L36.2871 76.424C36.4681 76.4754 36.6557 76.5009 36.8438 76.5C37.0586 76.4998 37.2723 76.466 37.4768 76.4L61.5091 68.4C62.263 68.1495 62.7971 67.4778 62.8709 66.6879L68.879 2.68796C68.9317 2.12827 68.7455 1.57215 68.3666 1.15608Z" fill="#FEFEFE"/>
<path d="M36.8441 60.4995C36.6584 60.4983 36.4737 60.4713 36.2953 60.4194L22.2764 56.4195C21.5883 56.2239 21.0569 55.6764 20.8825 54.9834L18.8798 46.9833C18.5872 45.9182 19.2149 44.8177 20.2815 44.5256C21.3481 44.2335 22.4501 44.8603 22.7426 45.9255C22.7508 45.9553 22.7582 45.9851 22.7649 46.0153L24.4872 52.8952L36.8438 56.4232L49.0201 52.9472L52.625 20.5031H16.8167C15.7107 20.5031 14.814 19.6076 14.814 18.503C14.814 17.3985 15.7107 16.503 16.8167 16.503H54.868C55.9741 16.4962 56.8761 17.3863 56.8828 18.4908C56.8832 18.5685 56.8792 18.6459 56.8706 18.723L52.8653 54.723C52.7744 55.5292 52.2048 56.2008 51.4233 56.423L37.4044 60.423C37.2225 60.4751 37.0336 60.5008 36.8441 60.4995Z" fill="#1E1414"/>
<path d="M52.8654 36.4991H18.8197C17.7136 36.4991 16.8169 35.6036 16.8169 34.4991C16.8169 33.3945 17.7136 32.499 18.8197 32.499H52.8654C53.9715 32.499 54.8682 33.3945 54.8682 34.4991C54.8682 35.6036 53.9715 36.4991 52.8654 36.4991Z" fill="#1E1414"/>
<path d="M17.655 108C15.485 108 13.9 107.5 12.9 106.5C11.9 105.5 11.4 103.915 11.4 101.745V94.92C11.4 92.73 11.895 91.14 12.885 90.15C13.885 89.16 15.465 88.665 17.625 88.665H21.255C23.095 88.665 24.465 89.05 25.365 89.82C26.265 90.58 26.76 91.805 26.85 93.495C26.88 93.765 26.825 93.97 26.685 94.11C26.555 94.25 26.36 94.32 26.1 94.32C25.6 94.32 25.325 94.055 25.275 93.525C25.205 92.285 24.865 91.43 24.255 90.96C23.645 90.48 22.645 90.24 21.255 90.24H17.625C16.475 90.24 15.56 90.39 14.88 90.69C14.2 90.98 13.71 91.47 13.41 92.16C13.12 92.84 12.975 93.76 12.975 94.92V101.745C12.975 102.905 13.125 103.825 13.425 104.505C13.725 105.185 14.215 105.675 14.895 105.975C15.575 106.275 16.495 106.425 17.655 106.425H21.255C22.645 106.425 23.645 106.19 24.255 105.72C24.865 105.24 25.205 104.38 25.275 103.14C25.325 102.61 25.6 102.345 26.1 102.345C26.36 102.345 26.555 102.42 26.685 102.57C26.825 102.71 26.88 102.91 26.85 103.17C26.76 104.86 26.265 106.09 25.365 106.86C24.465 107.62 23.095 108 21.255 108H17.655ZM36.7212 107.97C34.9312 107.97 33.6012 107.575 32.7312 106.785C31.8712 105.985 31.4112 104.73 31.3512 103.02C31.3412 102.78 31.4062 102.59 31.5462 102.45C31.6962 102.3 31.8912 102.225 32.1312 102.225C32.3712 102.225 32.5612 102.295 32.7012 102.435C32.8412 102.575 32.9212 102.765 32.9412 103.005C32.9812 104.265 33.2812 105.145 33.8412 105.645C34.4012 106.145 35.3612 106.395 36.7212 106.395H41.0412C42.4612 106.395 43.4462 106.12 43.9962 105.57C44.5562 105.01 44.8362 104.03 44.8362 102.63C44.8362 101.21 44.5562 100.225 43.9962 99.675C43.4462 99.115 42.4612 98.835 41.0412 98.835H36.9312C35.1712 98.835 33.8812 98.425 33.0612 97.605C32.2412 96.785 31.8312 95.5 31.8312 93.75C31.8312 92 32.2362 90.715 33.0462 89.895C33.8662 89.075 35.1512 88.665 36.9012 88.665H41.1012C42.7812 88.665 44.0262 89.04 44.8362 89.79C45.6562 90.54 46.0962 91.72 46.1562 93.33C46.1762 93.57 46.1112 93.765 45.9612 93.915C45.8212 94.055 45.6262 94.125 45.3762 94.125C45.1462 94.125 44.9612 94.055 44.8212 93.915C44.6812 93.775 44.6012 93.585 44.5812 93.345C44.5412 92.195 44.2612 91.39 43.7412 90.93C43.2212 90.47 42.3412 90.24 41.1012 90.24H36.9012C35.5912 90.24 34.6812 90.5 34.1712 91.02C33.6612 91.53 33.4062 92.44 33.4062 93.75C33.4062 95.06 33.6612 95.975 34.1712 96.495C34.6912 97.005 35.6112 97.26 36.9312 97.26H41.0412C42.9012 97.26 44.2612 97.695 45.1212 98.565C45.9812 99.425 46.4112 100.78 46.4112 102.63C46.4112 104.48 45.9812 105.835 45.1212 106.695C44.2612 107.545 42.9012 107.97 41.0412 107.97H36.7212ZM56.5845 107.97C54.7945 107.97 53.4645 107.575 52.5945 106.785C51.7345 105.985 51.2745 104.73 51.2145 103.02C51.2045 102.78 51.2695 102.59 51.4095 102.45C51.5595 102.3 51.7545 102.225 51.9945 102.225C52.2345 102.225 52.4245 102.295 52.5645 102.435C52.7045 102.575 52.7845 102.765 52.8045 103.005C52.8445 104.265 53.1445 105.145 53.7045 105.645C54.2645 106.145 55.2245 106.395 56.5845 106.395H60.9045C62.3245 106.395 63.3095 106.12 63.8595 105.57C64.4195 105.01 64.6995 104.03 64.6995 102.63C64.6995 101.21 64.4195 100.225 63.8595 99.675C63.3095 99.115 62.3245 98.835 60.9045 98.835H56.7945C55.0345 98.835 53.7445 98.425 52.9245 97.605C52.1045 96.785 51.6945 95.5 51.6945 93.75C51.6945 92 52.0995 90.715 52.9095 89.895C53.7295 89.075 55.0145 88.665 56.7645 88.665H60.9645C62.6445 88.665 63.8895 89.04 64.6995 89.79C65.5195 90.54 65.9595 91.72 66.0195 93.33C66.0395 93.57 65.9745 93.765 65.8245 93.915C65.6845 94.055 65.4895 94.125 65.2395 94.125C65.0095 94.125 64.8245 94.055 64.6845 93.915C64.5445 93.775 64.4645 93.585 64.4445 93.345C64.4045 92.195 64.1245 91.39 63.6045 90.93C63.0845 90.47 62.2045 90.24 60.9645 90.24H56.7645C55.4545 90.24 54.5445 90.5 54.0345 91.02C53.5245 91.53 53.2695 92.44 53.2695 93.75C53.2695 95.06 53.5245 95.975 54.0345 96.495C54.5545 97.005 55.4745 97.26 56.7945 97.26H60.9045C62.7645 97.26 64.1245 97.695 64.9845 98.565C65.8445 99.425 66.2745 100.78 66.2745 102.63C66.2745 104.48 65.8445 105.835 64.9845 106.695C64.1245 107.545 62.7645 107.97 60.9045 107.97H56.5845Z" fill="white"/>
</svg>
