<svg width="97" height="134" viewBox="0 0 97 134" fill="none" xmlns="http://www.w3.org/2000/svg">
<g clip-path="url(#clip0)">
<path d="M82.3666 21.1561C81.9874 20.7385 81.4491 20.5004 80.8847 20.5H16.7982C15.6922 20.4951 14.7915 21.3865 14.7867 22.4911C14.7863 22.5569 14.7893 22.6225 14.7955 22.688L20.8036 86.6879C20.8811 87.509 21.4553 88.1982 22.2495 88.424L50.2872 96.424C50.4681 96.4754 50.6557 96.5009 50.8438 96.5C51.0586 96.4998 51.2723 96.466 51.4768 96.4L75.5091 88.4C76.263 88.1495 76.7971 87.4778 76.8709 86.6879L82.879 22.688C82.9317 22.1283 82.7455 21.5721 82.3666 21.1561Z" fill="#FEFEFE"/>
<path d="M50.8441 80.4995C50.6584 80.4983 50.4737 80.4713 50.2953 80.4194L36.2764 76.4195C35.5883 76.2239 35.0569 75.6764 34.8825 74.9834L32.8798 66.9833C32.5872 65.9182 33.2149 64.8177 34.2815 64.5256C35.3481 64.2335 36.4501 64.8603 36.7426 65.9255C36.7508 65.9553 36.7582 65.9851 36.7649 66.0153L38.4872 72.8952L50.8438 76.4232L63.0201 72.9472L66.625 40.5031H30.8167C29.7107 40.5031 28.814 39.6076 28.814 38.503C28.814 37.3985 29.7107 36.503 30.8167 36.503H68.868C69.9741 36.4962 70.8761 37.3863 70.8828 38.4908C70.8832 38.5685 70.8792 38.6459 70.8706 38.723L66.8653 74.723C66.7744 75.5292 66.2048 76.2008 65.4233 76.423L51.4044 80.423C51.2225 80.4751 51.0336 80.5008 50.8441 80.4995Z" fill="#1E1414"/>
<path d="M66.8654 56.4991H32.8197C31.7136 56.4991 30.8169 55.6036 30.8169 54.4991C30.8169 53.3945 31.7136 52.499 32.8197 52.499H66.8654C67.9715 52.499 68.8682 53.3945 68.8682 54.4991C68.8682 55.6036 67.9715 56.4991 66.8654 56.4991Z" fill="#1E1414"/>
</g>
<path d="M31.655 128C29.485 128 27.9 127.5 26.9 126.5C25.9 125.5 25.4 123.915 25.4 121.745V114.92C25.4 112.73 25.895 111.14 26.885 110.15C27.885 109.16 29.465 108.665 31.625 108.665H35.255C37.095 108.665 38.465 109.05 39.365 109.82C40.265 110.58 40.76 111.805 40.85 113.495C40.88 113.765 40.825 113.97 40.685 114.11C40.555 114.25 40.36 114.32 40.1 114.32C39.6 114.32 39.325 114.055 39.275 113.525C39.205 112.285 38.865 111.43 38.255 110.96C37.645 110.48 36.645 110.24 35.255 110.24H31.625C30.475 110.24 29.56 110.39 28.88 110.69C28.2 110.98 27.71 111.47 27.41 112.16C27.12 112.84 26.975 113.76 26.975 114.92V121.745C26.975 122.905 27.125 123.825 27.425 124.505C27.725 125.185 28.215 125.675 28.895 125.975C29.575 126.275 30.495 126.425 31.655 126.425H35.255C36.645 126.425 37.645 126.19 38.255 125.72C38.865 125.24 39.205 124.38 39.275 123.14C39.325 122.61 39.6 122.345 40.1 122.345C40.36 122.345 40.555 122.42 40.685 122.57C40.825 122.71 40.88 122.91 40.85 123.17C40.76 124.86 40.265 126.09 39.365 126.86C38.465 127.62 37.095 128 35.255 128H31.655ZM50.7212 127.97C48.9312 127.97 47.6012 127.575 46.7312 126.785C45.8712 125.985 45.4112 124.73 45.3512 123.02C45.3412 122.78 45.4062 122.59 45.5462 122.45C45.6962 122.3 45.8912 122.225 46.1312 122.225C46.3712 122.225 46.5612 122.295 46.7012 122.435C46.8412 122.575 46.9212 122.765 46.9412 123.005C46.9812 124.265 47.2812 125.145 47.8412 125.645C48.4012 126.145 49.3612 126.395 50.7212 126.395H55.0412C56.4612 126.395 57.4462 126.12 57.9962 125.57C58.5562 125.01 58.8362 124.03 58.8362 122.63C58.8362 121.21 58.5562 120.225 57.9962 119.675C57.4462 119.115 56.4612 118.835 55.0412 118.835H50.9312C49.1712 118.835 47.8812 118.425 47.0612 117.605C46.2412 116.785 45.8312 115.5 45.8312 113.75C45.8312 112 46.2362 110.715 47.0462 109.895C47.8662 109.075 49.1512 108.665 50.9012 108.665H55.1012C56.7812 108.665 58.0262 109.04 58.8362 109.79C59.6562 110.54 60.0962 111.72 60.1562 113.33C60.1762 113.57 60.1112 113.765 59.9612 113.915C59.8212 114.055 59.6262 114.125 59.3762 114.125C59.1462 114.125 58.9612 114.055 58.8212 113.915C58.6812 113.775 58.6012 113.585 58.5812 113.345C58.5412 112.195 58.2612 111.39 57.7412 110.93C57.2212 110.47 56.3412 110.24 55.1012 110.24H50.9012C49.5912 110.24 48.6812 110.5 48.1712 111.02C47.6612 111.53 47.4062 112.44 47.4062 113.75C47.4062 115.06 47.6612 115.975 48.1712 116.495C48.6912 117.005 49.6112 117.26 50.9312 117.26H55.0412C56.9012 117.26 58.2612 117.695 59.1212 118.565C59.9812 119.425 60.4112 120.78 60.4112 122.63C60.4112 124.48 59.9812 125.835 59.1212 126.695C58.2612 127.545 56.9012 127.97 55.0412 127.97H50.7212ZM70.5845 127.97C68.7945 127.97 67.4645 127.575 66.5945 126.785C65.7345 125.985 65.2745 124.73 65.2145 123.02C65.2045 122.78 65.2695 122.59 65.4095 122.45C65.5595 122.3 65.7545 122.225 65.9945 122.225C66.2345 122.225 66.4245 122.295 66.5645 122.435C66.7045 122.575 66.7845 122.765 66.8045 123.005C66.8445 124.265 67.1445 125.145 67.7045 125.645C68.2645 126.145 69.2245 126.395 70.5845 126.395H74.9045C76.3245 126.395 77.3095 126.12 77.8595 125.57C78.4195 125.01 78.6995 124.03 78.6995 122.63C78.6995 121.21 78.4195 120.225 77.8595 119.675C77.3095 119.115 76.3245 118.835 74.9045 118.835H70.7945C69.0345 118.835 67.7445 118.425 66.9245 117.605C66.1045 116.785 65.6945 115.5 65.6945 113.75C65.6945 112 66.0995 110.715 66.9095 109.895C67.7295 109.075 69.0145 108.665 70.7645 108.665H74.9645C76.6445 108.665 77.8895 109.04 78.6995 109.79C79.5195 110.54 79.9595 111.72 80.0195 113.33C80.0395 113.57 79.9745 113.765 79.8245 113.915C79.6845 114.055 79.4895 114.125 79.2395 114.125C79.0095 114.125 78.8245 114.055 78.6845 113.915C78.5445 113.775 78.4645 113.585 78.4445 113.345C78.4045 112.195 78.1245 111.39 77.6045 110.93C77.0845 110.47 76.2045 110.24 74.9645 110.24H70.7645C69.4545 110.24 68.5445 110.5 68.0345 111.02C67.5245 111.53 67.2695 112.44 67.2695 113.75C67.2695 115.06 67.5245 115.975 68.0345 116.495C68.5545 117.005 69.4745 117.26 70.7945 117.26H74.9045C76.7645 117.26 78.1245 117.695 78.9845 118.565C79.8445 119.425 80.2745 120.78 80.2745 122.63C80.2745 124.48 79.8445 125.835 78.9845 126.695C78.1245 127.545 76.7645 127.97 74.9045 127.97H70.5845Z" fill="white"/>
<defs>
<clipPath id="clip0">
<rect width="96.1295" height="96" fill="white" transform="translate(0.772461 0.5)"/>
</clipPath>
</defs>
</svg>
