<svg width="78" height="129" viewBox="0 0 78 129" fill="none" xmlns="http://www.w3.org/2000/svg">
<g clip-path="url(#clip0)" filter="url(#filter0_d)">
<path d="M40 46.9997C40 42.8446 41.633 38.8597 44.5398 35.9217C47.4467 32.9836 51.3891 31.333 55.5 31.333C59.6109 31.333 63.5533 32.9836 66.4602 35.9217C69.367 38.8597 71 42.8446 71 46.9997C71 51.1547 69.367 55.1396 66.4602 58.0777C63.5533 61.0157 59.6109 62.6663 55.5 62.6663C51.3891 62.6663 47.4467 61.0157 44.5398 58.0777C41.633 55.1396 40 51.1547 40 46.9997Z" fill="white"/>
<path d="M9 78.3337C9 74.1786 10.633 70.1937 13.5398 67.2557C16.4467 64.3176 20.3891 62.667 24.5 62.667H40V78.3337C40 82.4887 38.367 86.4736 35.4602 89.4117C32.5533 92.3497 28.6109 94.0003 24.5 94.0003C20.3891 94.0003 16.4467 92.3497 13.5398 89.4117C10.633 86.4736 9 82.4887 9 78.3337H9Z" fill="white"/>
<path d="M40 0V31.3333H55.5C59.6109 31.3333 63.5533 29.6827 66.4602 26.7447C69.367 23.8066 71 19.8217 71 15.6667C71 11.5116 69.367 7.52673 66.4602 4.58866C63.5533 1.65059 59.6109 0 55.5 0L40 0Z" fill="white"/>
<path d="M9 15.6667C9 19.8217 10.633 23.8066 13.5398 26.7447C16.4467 29.6827 20.3891 31.3333 24.5 31.3333H40V0H24.5C20.3891 0 16.4467 1.65059 13.5398 4.58866C10.633 7.52673 9 11.5116 9 15.6667H9Z" fill="white"/>
<path d="M9 46.9997C9 51.1547 10.633 55.1396 13.5398 58.0777C16.4467 61.0157 20.3891 62.6663 24.5 62.6663H40V31.333H24.5C20.3891 31.333 16.4467 32.9836 13.5398 35.9217C10.633 38.8597 9 42.8446 9 46.9997H9Z" fill="white"/>
</g>
<path d="M3.855 123C3.325 123 3.06 122.735 3.06 122.205V110.4H1.8C1.27 110.4 1.005 110.135 1.005 109.605C1.005 109.085 1.27 108.825 1.8 108.825H3.06V107.49C3.06 105.65 3.485 104.31 4.335 103.47C5.195 102.62 6.545 102.195 8.385 102.195H12.525L12.15 104.775L8.385 103.77C6.985 103.77 6.01 104.04 5.46 104.58C4.91 105.12 4.635 106.09 4.635 107.49V108.825H12.825C13.355 108.825 13.62 109.085 13.62 109.605C13.62 110.135 13.355 110.4 12.825 110.4H4.635V122.205C4.635 122.735 4.375 123 3.855 123ZM12.825 123C12.295 123 12.03 122.735 12.03 122.205V109.605C12.03 109.085 12.295 108.825 12.825 108.825C13.345 108.825 13.605 109.085 13.605 109.605V122.205C13.605 122.735 13.345 123 12.825 123ZM12.48 104.82C11.81 104.82 11.475 104.485 11.475 103.815V103.155C11.475 102.505 11.81 102.18 12.48 102.18H13.11C13.76 102.18 14.085 102.505 14.085 103.155V103.815C14.085 104.485 13.76 104.82 13.11 104.82H12.48ZM22.6027 129C21.4227 129 20.5227 128.755 19.9027 128.265C19.2827 127.785 18.9177 127.025 18.8077 125.985C18.7777 125.725 18.8327 125.52 18.9727 125.37C19.1127 125.22 19.3077 125.145 19.5577 125.145C19.8077 125.145 19.9977 125.21 20.1277 125.34C20.2577 125.47 20.3427 125.665 20.3827 125.925C20.4527 126.505 20.6577 126.9 20.9977 127.11C21.3377 127.32 21.8727 127.425 22.6027 127.425H28.1827C29.0627 127.425 29.6577 127.265 29.9677 126.945C30.2877 126.625 30.4477 126.025 30.4477 125.145V120.855C29.9877 121.555 29.3377 122.09 28.4977 122.46C27.6577 122.82 26.5927 123 25.3027 123H24.1627C22.2927 123 20.9227 122.57 20.0527 121.71C19.1827 120.84 18.7477 119.475 18.7477 117.615V114.225C18.7477 112.335 19.1777 110.965 20.0377 110.115C20.9077 109.255 22.2827 108.825 24.1627 108.825H26.6227C27.6027 108.825 28.3977 108.955 29.0077 109.215C29.6177 109.475 30.0977 109.88 30.4477 110.43V109.605C30.4477 109.085 30.7127 108.825 31.2427 108.825C31.7627 108.825 32.0227 109.085 32.0227 109.605V125.145C32.0227 126.465 31.7127 127.435 31.0927 128.055C30.4727 128.685 29.5027 129 28.1827 129H22.6027ZM24.1627 121.425H25.3027C26.8627 121.425 28.1077 121.18 29.0377 120.69C29.9777 120.2 30.4477 119.455 30.4477 118.455V113.445C30.4477 112.315 30.1327 111.525 29.5027 111.075C28.8727 110.625 27.9127 110.4 26.6227 110.4H24.1627C22.7327 110.4 21.7327 110.68 21.1627 111.24C20.6027 111.79 20.3227 112.785 20.3227 114.225V117.615C20.3227 119.025 20.6027 120.015 21.1627 120.585C21.7327 121.145 22.7327 121.425 24.1627 121.425ZM53.2603 108.795C54.8703 108.795 56.0203 109.205 56.7103 110.025C57.4103 110.845 57.7603 112.2 57.7603 114.09V122.235C57.7603 122.755 57.5003 123.015 56.9803 123.015C56.4503 123.015 56.1853 122.755 56.1853 122.235V114.09C56.1853 112.77 55.9603 111.82 55.5103 111.24C55.0603 110.66 54.3103 110.37 53.2603 110.37H52.0153C50.7053 110.37 49.7653 110.66 49.1953 111.24C48.6353 111.82 48.3553 112.77 48.3553 114.09V122.235C48.3553 122.755 48.0953 123.015 47.5753 123.015C47.0453 123.015 46.7803 122.755 46.7803 122.235V114.09C46.7803 112.77 46.5553 111.82 46.1053 111.24C45.6553 110.66 44.9053 110.37 43.8553 110.37H42.6103C41.3003 110.37 40.3603 110.66 39.7903 111.24C39.2303 111.82 38.9503 112.77 38.9503 114.09V122.235C38.9503 122.755 38.6903 123.015 38.1703 123.015C37.6403 123.015 37.3753 122.755 37.3753 122.235V109.605C37.3753 109.085 37.6403 108.825 38.1703 108.825C38.6903 108.825 38.9503 109.085 38.9503 109.605V110.775C39.3903 110.065 39.9103 109.56 40.5103 109.26C41.1203 108.95 41.8903 108.795 42.8203 108.795H43.8553C44.9053 108.795 45.7453 108.98 46.3753 109.35C47.0153 109.71 47.5203 110.305 47.8903 111.135C48.3303 110.305 48.8703 109.71 49.5103 109.35C50.1503 108.98 50.9853 108.795 52.0153 108.795H53.2603ZM66.727 123C65.167 123 64.022 122.64 63.292 121.92C62.572 121.19 62.212 120.045 62.212 118.485C62.212 116.925 62.577 115.78 63.307 115.05C64.037 114.32 65.177 113.955 66.727 113.955H73.552C73.532 112.635 73.232 111.715 72.652 111.195C72.082 110.665 71.107 110.4 69.727 110.4H67.987C66.717 110.4 65.787 110.535 65.197 110.805C64.607 111.075 64.242 111.535 64.102 112.185C64.032 112.435 63.937 112.62 63.817 112.74C63.707 112.85 63.527 112.905 63.277 112.905C63.017 112.905 62.812 112.835 62.662 112.695C62.522 112.545 62.472 112.345 62.512 112.095C62.642 110.955 63.157 110.125 64.057 109.605C64.967 109.085 66.277 108.825 67.987 108.825H69.727C71.597 108.825 72.962 109.26 73.822 110.13C74.692 110.99 75.127 112.355 75.127 114.225V122.205C75.127 122.735 74.867 123 74.347 123C73.817 123 73.552 122.735 73.552 122.205V120.72C72.592 122.24 70.877 123 68.407 123H66.727ZM66.727 121.425H68.407C69.377 121.425 70.227 121.32 70.957 121.11C71.697 120.89 72.292 120.54 72.742 120.06C73.192 119.58 73.462 118.94 73.552 118.14V115.53H66.727C65.617 115.53 64.847 115.745 64.417 116.175C63.997 116.595 63.787 117.365 63.787 118.485C63.787 119.595 63.997 120.365 64.417 120.795C64.847 121.215 65.617 121.425 66.727 121.425Z" fill="white"/>
<defs>
<filter id="filter0_d" x="5" y="0" width="70" height="102" filterUnits="userSpaceOnUse" color-interpolation-filters="sRGB">
<feFlood flood-opacity="0" result="BackgroundImageFix"/>
<feColorMatrix in="SourceAlpha" type="matrix" values="0 0 0 0 0 0 0 0 0 0 0 0 0 0 0 0 0 0 127 0"/>
<feOffset dy="4"/>
<feGaussianBlur stdDeviation="2"/>
<feColorMatrix type="matrix" values="0 0 0 0 0 0 0 0 0 0 0 0 0 0 0 0 0 0 0.25 0"/>
<feBlend mode="normal" in2="BackgroundImageFix" result="effect1_dropShadow"/>
<feBlend mode="normal" in="SourceGraphic" in2="effect1_dropShadow" result="shape"/>
</filter>
<clipPath id="clip0">
<rect width="62" height="94" fill="white" transform="translate(9)"/>
</clipPath>
</defs>
</svg>
