<svg width="97" height="138" viewBox="0 0 97 138" fill="none" xmlns="http://www.w3.org/2000/svg">
<g clip-path="url(#clip0)">
<path d="M48.0054 0.635742C21.6411 0.635742 0.00537109 22.2715 0.00537109 48.6357C0.00537109 71.1335 15.792 91.5703 36.7554 96.6357V80.7554C34.6782 81.2102 32.7666 81.2234 30.6521 80.6001C27.8154 79.7629 25.5105 77.8733 23.7996 74.9919C22.709 73.1521 20.7761 71.157 18.7598 71.3035L18.2654 65.7004C22.6255 65.3269 26.3975 68.3569 28.6365 72.1187C29.6311 73.7915 30.7759 74.7722 32.2451 75.2058C33.6653 75.624 35.1902 75.4233 36.967 74.7957C37.4131 71.2383 39.0427 69.9067 40.2739 68.0317V68.0288C27.7715 66.1641 22.7888 59.5312 20.8113 54.2959C18.1907 47.3445 19.5969 38.6602 24.231 33.1721C24.321 33.0652 24.4836 32.7854 24.4207 32.5898C22.2959 26.1716 24.885 20.8623 24.9802 20.2991C27.4324 21.0242 27.8308 19.5696 35.6318 24.3091L36.9802 25.1191C37.5442 25.4553 37.3669 25.2634 37.9309 25.2209C41.188 24.3362 44.6216 23.8477 48.0046 23.8037C51.4133 23.8477 54.825 24.3362 58.2168 25.2568L58.6533 25.3008C58.6152 25.2949 58.772 25.2729 59.0349 25.1162C68.7798 19.2136 68.4297 21.1428 71.043 20.2932C71.1375 20.8572 73.6921 26.2529 71.5901 32.5898C71.3066 33.4629 80.0386 41.4587 75.1987 54.2937C73.2212 59.5312 68.2393 66.1641 55.7368 68.0288V68.0317C57.3394 70.4744 59.2649 71.7737 59.2546 76.8127V96.6357C80.2188 91.5703 96.0046 71.1335 96.0046 48.6357C96.0054 22.2715 74.3696 0.635742 48.0054 0.635742V0.635742Z" fill="white"/>
</g>
<path d="M8.655 132C6.485 132 4.9 131.5 3.9 130.5C2.9 129.5 2.4 127.915 2.4 125.745V118.92C2.4 116.73 2.895 115.14 3.885 114.15C4.885 113.16 6.465 112.665 8.625 112.665H12.255C14.095 112.665 15.465 113.05 16.365 113.82C17.265 114.58 17.76 115.805 17.85 117.495C17.88 117.765 17.825 117.97 17.685 118.11C17.555 118.25 17.36 118.32 17.1 118.32C16.6 118.32 16.325 118.055 16.275 117.525C16.205 116.285 15.865 115.43 15.255 114.96C14.645 114.48 13.645 114.24 12.255 114.24H8.625C7.475 114.24 6.56 114.39 5.88 114.69C5.2 114.98 4.71 115.47 4.41 116.16C4.12 116.84 3.975 117.76 3.975 118.92V125.745C3.975 126.905 4.125 127.825 4.425 128.505C4.725 129.185 5.215 129.675 5.895 129.975C6.575 130.275 7.495 130.425 8.655 130.425H12.255C13.275 130.425 14.08 130.3 14.67 130.05C15.27 129.8 15.695 129.38 15.945 128.79C16.195 128.2 16.32 127.385 16.32 126.345V124.47L13.035 124.44C12.515 124.44 12.255 124.175 12.255 123.645C12.255 123.125 12.515 122.865 13.035 122.865L17.115 122.895C17.635 122.895 17.895 123.155 17.895 123.675V126.345C17.895 128.325 17.45 129.765 16.56 130.665C15.67 131.555 14.235 132 12.255 132H8.655ZM23.5805 132C23.0505 132 22.7855 131.735 22.7855 131.205V118.605C22.7855 118.085 23.0505 117.825 23.5805 117.825C24.1005 117.825 24.3605 118.085 24.3605 118.605V131.205C24.3605 131.735 24.1005 132 23.5805 132ZM23.2505 115.08C22.5605 115.08 22.2155 114.725 22.2155 114.015V113.34C22.2155 112.66 22.5605 112.32 23.2505 112.32H23.9105C24.5905 112.32 24.9305 112.66 24.9305 113.34V114.015C24.9305 114.725 24.5905 115.08 23.9105 115.08H23.2505ZM35.7532 132C33.9132 132 32.5682 131.575 31.7182 130.725C30.8682 129.875 30.4432 128.535 30.4432 126.705V119.4H28.6582C28.1282 119.4 27.8632 119.135 27.8632 118.605C27.8632 118.085 28.1282 117.825 28.6582 117.825H30.4432V114.6C30.4432 114.07 30.7032 113.805 31.2232 113.805C31.7532 113.805 32.0182 114.07 32.0182 114.6V117.825H35.7832C36.3032 117.825 36.5632 118.085 36.5632 118.605C36.5632 119.135 36.3032 119.4 35.7832 119.4H32.0182V126.705C32.0182 128.105 32.2882 129.075 32.8282 129.615C33.3782 130.155 34.3532 130.425 35.7532 130.425C36.0432 130.425 36.2482 130.49 36.3682 130.62C36.4982 130.75 36.5632 130.945 36.5632 131.205C36.5632 131.735 36.2932 132 35.7532 132ZM41.5102 132C40.9802 132 40.7152 131.735 40.7152 131.205V111.975C40.7152 111.455 40.9802 111.195 41.5102 111.195C42.0302 111.195 42.2902 111.455 42.2902 111.975V120.045C43.2402 118.565 44.9602 117.825 47.4502 117.825H48.2902C50.1602 117.825 51.5252 118.26 52.3852 119.13C53.2552 119.99 53.6902 121.355 53.6902 123.225V131.205C53.6902 131.735 53.4302 132 52.9102 132C52.3802 132 52.1152 131.735 52.1152 131.205V123.225C52.1152 121.795 51.8302 120.8 51.2602 120.24C50.7002 119.68 49.7102 119.4 48.2902 119.4H47.4502C45.9002 119.4 44.6802 119.645 43.7902 120.135C42.9002 120.625 42.4002 121.39 42.2902 122.43V131.205C42.2902 131.735 42.0302 132 41.5102 132ZM70.9357 117.825C71.4657 117.825 71.7307 118.09 71.7307 118.62V131.22C71.7307 131.74 71.4657 132 70.9357 132C70.4157 132 70.1557 131.74 70.1557 131.22V129.78C69.2057 131.26 67.4857 132 64.9957 132H64.1557C62.2857 132 60.9157 131.57 60.0457 130.71C59.1857 129.84 58.7557 128.47 58.7557 126.6V118.62C58.7557 118.09 59.0157 117.825 59.5357 117.825C60.0657 117.825 60.3307 118.09 60.3307 118.62V126.6C60.3307 128.03 60.6107 129.025 61.1707 129.585C61.7407 130.145 62.7357 130.425 64.1557 130.425H64.9957C66.5457 130.425 67.7657 130.18 68.6557 129.69C69.5457 129.2 70.0457 128.435 70.1557 127.395V118.62C70.1557 118.09 70.4157 117.825 70.9357 117.825ZM78.1313 132C77.6013 132 77.3363 131.735 77.3363 131.205V111.975C77.3363 111.455 77.6013 111.195 78.1313 111.195C78.6513 111.195 78.9113 111.455 78.9113 111.975V119.91C79.3613 119.22 80.0013 118.695 80.8313 118.335C81.6713 117.975 82.7513 117.795 84.0713 117.795H85.2113C87.0813 117.795 88.4463 118.23 89.3063 119.1C90.1763 119.97 90.6113 121.34 90.6113 123.21V126.585C90.6113 128.455 90.1763 129.825 89.3063 130.695C88.4463 131.565 87.0813 132 85.2113 132H84.0713C82.7513 132 81.6713 131.825 80.8313 131.475C80.0013 131.115 79.3613 130.585 78.9113 129.885V131.205C78.9113 131.735 78.6513 132 78.1313 132ZM84.0713 130.425H85.2113C86.6413 130.425 87.6363 130.145 88.1963 129.585C88.7563 129.015 89.0363 128.015 89.0363 126.585V123.21C89.0363 121.78 88.7513 120.785 88.1813 120.225C87.6213 119.655 86.6313 119.37 85.2113 119.37H84.0713C82.5113 119.37 81.2613 119.615 80.3213 120.105C79.3813 120.595 78.9113 121.34 78.9113 122.34V127.515C78.9313 128.485 79.4113 129.215 80.3513 129.705C81.2913 130.185 82.5313 130.425 84.0713 130.425Z" fill="white"/>
<defs>
<clipPath id="clip0">
<rect width="96" height="96" fill="white" transform="translate(0.00537109 0.635742)"/>
</clipPath>
</defs>
</svg>
