<svg width="50" height="50" viewBox="0 0 50 50" fill="none" xmlns="http://www.w3.org/2000/svg">
<path d="M0.130859 0V49.0052H49.2022V0H0.130859ZM46.3269 2.8714V6.36494H26.0867L22.4447 11.2303H3.00613V2.8714H46.3269ZM3.00613 46.1338V14.1017H23.8852L27.5272 9.23634H46.3269V46.1338H3.00613Z" fill="#ECBD2C"/>
<path d="M6.14478 5.43945H9.02005V8.31085H6.14478V5.43945Z" fill="#ECBD2C"/>
<path d="M12.0432 5.43945H14.9185V8.31085H12.0432V5.43945Z" fill="#ECBD2C"/>
<path d="M17.9414 5.43945H20.8167V8.31085H17.9414V5.43945Z" fill="#ECBD2C"/>
<path d="M15.19 22.0059L7.11475 30.0701L15.19 38.1342L17.223 36.104L11.1811 30.0701L17.223 24.0361L15.19 22.0059Z" fill="#ECBD2C"/>
<path d="M32.1099 24.0361L38.1519 30.0701L32.1099 36.104L34.143 38.1342L42.2181 30.0701L34.143 22.0059L32.1099 24.0361Z" fill="#ECBD2C"/>
<path d="M18.489 40.0527L28.177 18.8889L30.7935 20.0834L21.1055 41.2472L18.489 40.0527Z" fill="#ECBD2C"/>
</svg>
