<svg width="97" height="134" viewBox="0 0 97 134" fill="none" xmlns="http://www.w3.org/2000/svg">
<g clip-path="url(#clip0)">
<path d="M82.1048 21.1561C81.7255 20.7385 81.1872 20.5004 80.6228 20.5H16.5365C15.4305 20.4951 14.5298 21.3865 14.5249 22.4911C14.5246 22.5569 14.5276 22.6225 14.5338 22.688L20.5418 86.6878C20.6194 87.5088 21.1935 88.1981 21.9877 88.4238L50.0254 96.4239C50.2064 96.4753 50.3939 96.5007 50.5821 96.4998C50.7968 96.4996 51.0105 96.4659 51.215 96.3999L75.2473 88.3998C76.0011 88.1493 76.5353 87.4777 76.6091 86.6878L82.6171 22.688C82.6699 22.1281 82.4838 21.572 82.1048 21.1561Z" fill="white"/>
<path d="M50.5826 80.5002C50.3969 80.4991 50.2121 80.4721 50.0337 80.4202L36.015 76.4202C35.3269 76.2247 34.7956 75.6772 34.6211 74.9842L32.6184 66.9841C32.3259 65.9189 32.9535 64.8185 34.0201 64.5264C35.0868 64.2343 36.1887 64.8611 36.4812 65.9263C36.4895 65.9561 36.4968 65.9859 36.5035 66.0161L38.2258 72.896L50.5384 76.408L60.7362 73.0121L62.3864 56.5001H32.5583C31.5437 56.5081 30.6834 55.7572 30.5555 54.752L28.5528 38.7521C28.4135 37.6564 29.1898 36.6553 30.2871 36.516C30.3761 36.5048 30.4658 36.4993 30.5554 36.5001H68.6066C69.7127 36.5001 70.6094 37.3956 70.6094 38.5001C70.6094 39.6047 69.7127 40.5002 68.6066 40.5002H32.8227L34.3247 52.5002H64.6015C65.7075 52.4945 66.6085 53.3855 66.6142 54.4901C66.6146 54.5602 66.6112 54.6303 66.6042 54.7001L64.6015 74.7001C64.5237 75.4844 63.9922 76.15 63.2436 76.4002L51.2275 80.4001C51.0191 80.4674 50.8015 80.5013 50.5826 80.5002Z" fill="#1D1D1D"/>
</g>
<path d="M14.6 128C14.36 128 14.165 127.93 14.015 127.79C13.875 127.64 13.805 127.445 13.805 127.205V109.46C13.805 109.22 13.875 109.03 14.015 108.89C14.165 108.74 14.36 108.665 14.6 108.665C14.84 108.665 15.03 108.74 15.17 108.89C15.31 109.03 15.38 109.22 15.38 109.46V117.41H27.965V109.46C27.965 109.22 28.035 109.03 28.175 108.89C28.315 108.74 28.505 108.665 28.745 108.665C28.985 108.665 29.175 108.74 29.315 108.89C29.465 109.03 29.54 109.22 29.54 109.46V127.205C29.54 127.445 29.465 127.64 29.315 127.79C29.175 127.93 28.985 128 28.745 128C28.505 128 28.315 127.93 28.175 127.79C28.035 127.64 27.965 127.445 27.965 127.205V118.985H15.38V127.205C15.38 127.445 15.31 127.64 15.17 127.79C15.03 127.93 14.84 128 14.6 128ZM40.8774 128.015C40.6374 128.015 40.4424 127.945 40.2924 127.805C40.1524 127.665 40.0824 127.475 40.0824 127.235V110.225H33.7074C33.4674 110.225 33.2724 110.155 33.1224 110.015C32.9824 109.875 32.9124 109.685 32.9124 109.445C32.9124 109.205 32.9824 109.015 33.1224 108.875C33.2724 108.725 33.4674 108.65 33.7074 108.65H48.0474C48.2874 108.65 48.4774 108.725 48.6174 108.875C48.7574 109.015 48.8274 109.205 48.8274 109.445C48.8274 109.685 48.7574 109.875 48.6174 110.015C48.4774 110.155 48.2874 110.225 48.0474 110.225H41.6574V127.235C41.6574 127.465 41.5824 127.655 41.4324 127.805C41.2924 127.945 41.1074 128.015 40.8774 128.015ZM52.9789 128C52.4489 128 52.1839 127.735 52.1839 127.205V109.46C52.1839 108.93 52.4489 108.665 52.9789 108.665C53.3589 108.665 53.6589 108.84 53.8789 109.19L61.3489 120.605L60.9889 120.65L68.4589 109.19C68.6689 108.84 68.9839 108.665 69.4039 108.665C69.8739 108.665 70.1089 108.93 70.1089 109.46V127.205C70.1089 127.735 69.8489 128 69.3289 128C68.7989 128 68.5339 127.735 68.5339 127.205V111.035L68.9989 111.185L62.0689 121.745C61.8489 122.085 61.5339 122.255 61.1239 122.255C60.7639 122.255 60.4739 122.085 60.2539 121.745L53.3239 111.185L53.7589 111.35V127.205C53.7589 127.735 53.4989 128 52.9789 128ZM76.5043 128C75.9743 128 75.7093 127.735 75.7093 127.205V109.46C75.7093 108.93 75.9743 108.665 76.5043 108.665C77.0243 108.665 77.2843 108.93 77.2843 109.46V126.425H86.4043C86.9343 126.425 87.1993 126.685 87.1993 127.205C87.1993 127.735 86.9343 128 86.4043 128H76.5043Z" fill="white"/>
<defs>
<clipPath id="clip0">
<rect width="96.1295" height="96" fill="white" transform="translate(0.510986 0.5)"/>
</clipPath>
</defs>
</svg>
