<svg width="77" height="114" viewBox="0 0 77 114" fill="none" xmlns="http://www.w3.org/2000/svg">
<path d="M71.1048 0.656081C70.7255 0.23852 70.1872 0.000394901 69.6228 1.99013e-05H5.53652C4.43046 -0.00485509 3.52982 0.886519 3.52493 1.99108C3.52456 2.05689 3.52756 2.12252 3.53376 2.18795L9.54184 66.1878C9.61938 67.0088 10.1935 67.6981 10.9877 67.9238L39.0254 75.9239C39.2064 75.9752 39.3939 76.0007 39.5821 75.9998C39.7969 75.9996 40.0105 75.9659 40.215 75.8999L64.2473 67.8998C65.0011 67.6493 65.5353 66.9777 65.6091 66.1878L71.6171 2.18795C71.6699 1.62808 71.4838 1.07196 71.1048 0.656081Z" fill="white"/>
<path d="M39.5825 59.9997C39.3969 59.9986 39.2121 59.9716 39.0337 59.9197L25.015 55.9197C24.3269 55.7242 23.7956 55.1767 23.6211 54.4837L21.6184 46.4836C21.3259 45.4185 21.9535 44.318 23.0201 44.0259C24.0868 43.7338 25.1887 44.3606 25.4812 45.4258C25.4895 45.4556 25.4968 45.4854 25.5035 45.5156L27.2258 52.3955L39.5384 55.9076L49.7362 52.5116L51.3864 35.9996H21.5583C20.5437 36.0077 19.6834 35.2567 19.5555 34.2515L17.5528 18.2516C17.4135 17.1559 18.1898 16.1548 19.2871 16.0155C19.3761 16.0043 19.4658 15.9988 19.5554 15.9996H57.6066C58.7127 15.9996 59.6094 16.8951 59.6094 17.9996C59.6094 19.1042 58.7127 19.9997 57.6066 19.9997H21.8227L23.3247 31.9997H53.6015C54.7075 31.994 55.6085 32.885 55.6142 33.9896C55.6146 34.0597 55.6112 34.1299 55.6042 34.1996L53.6015 54.1996C53.5237 54.9839 52.9922 55.6496 52.2436 55.8997L40.2275 59.8996C40.0191 59.9669 39.8015 60.0009 39.5825 59.9997Z" fill="#1D1D1D"/>
<path d="M3.6 107.5C3.36 107.5 3.165 107.43 3.015 107.29C2.875 107.14 2.805 106.945 2.805 106.705V88.96C2.805 88.72 2.875 88.53 3.015 88.39C3.165 88.24 3.36 88.165 3.6 88.165C3.84 88.165 4.03 88.24 4.17 88.39C4.31 88.53 4.38 88.72 4.38 88.96V96.91H16.965V88.96C16.965 88.72 17.035 88.53 17.175 88.39C17.315 88.24 17.505 88.165 17.745 88.165C17.985 88.165 18.175 88.24 18.315 88.39C18.465 88.53 18.54 88.72 18.54 88.96V106.705C18.54 106.945 18.465 107.14 18.315 107.29C18.175 107.43 17.985 107.5 17.745 107.5C17.505 107.5 17.315 107.43 17.175 107.29C17.035 107.14 16.965 106.945 16.965 106.705V98.485H4.38V106.705C4.38 106.945 4.31 107.14 4.17 107.29C4.03 107.43 3.84 107.5 3.6 107.5ZM29.8774 107.515C29.6374 107.515 29.4424 107.445 29.2924 107.305C29.1524 107.165 29.0824 106.975 29.0824 106.735V89.725H22.7074C22.4674 89.725 22.2724 89.655 22.1224 89.515C21.9824 89.375 21.9124 89.185 21.9124 88.945C21.9124 88.705 21.9824 88.515 22.1224 88.375C22.2724 88.225 22.4674 88.15 22.7074 88.15H37.0474C37.2874 88.15 37.4774 88.225 37.6174 88.375C37.7574 88.515 37.8274 88.705 37.8274 88.945C37.8274 89.185 37.7574 89.375 37.6174 89.515C37.4774 89.655 37.2874 89.725 37.0474 89.725H30.6574V106.735C30.6574 106.965 30.5824 107.155 30.4324 107.305C30.2924 107.445 30.1074 107.515 29.8774 107.515ZM41.9789 107.5C41.4489 107.5 41.1839 107.235 41.1839 106.705V88.96C41.1839 88.43 41.4489 88.165 41.9789 88.165C42.3589 88.165 42.6589 88.34 42.8789 88.69L50.3489 100.105L49.9889 100.15L57.4589 88.69C57.6689 88.34 57.9839 88.165 58.4039 88.165C58.8739 88.165 59.1089 88.43 59.1089 88.96V106.705C59.1089 107.235 58.8489 107.5 58.3289 107.5C57.7989 107.5 57.5339 107.235 57.5339 106.705V90.535L57.9989 90.685L51.0689 101.245C50.8489 101.585 50.5339 101.755 50.1239 101.755C49.7639 101.755 49.4739 101.585 49.2539 101.245L42.3239 90.685L42.7589 90.85V106.705C42.7589 107.235 42.4989 107.5 41.9789 107.5ZM65.5043 107.5C64.9743 107.5 64.7093 107.235 64.7093 106.705V88.96C64.7093 88.43 64.9743 88.165 65.5043 88.165C66.0243 88.165 66.2843 88.43 66.2843 88.96V105.925H75.4043C75.9343 105.925 76.1993 106.185 76.1993 106.705C76.1993 107.235 75.9343 107.5 75.4043 107.5H65.5043Z" fill="white"/>
</svg>
