<svg width="97" height="134" viewBox="0 0 97 134" fill="none" xmlns="http://www.w3.org/2000/svg">
<g clip-path="url(#clip0)">
<path d="M96.1637 48.5C96.1637 54.7537 94.9669 60.7272 92.7873 66.2071C91.6219 69.1381 90.176 71.9279 88.481 74.5415C86.3701 77.8016 83.8726 80.7894 81.0556 83.4382C79.4056 84.9918 77.6478 86.4279 75.7919 87.7366C67.9643 93.2576 58.4122 96.5 48.0989 96.5C37.7856 96.5 28.2335 93.2576 20.4057 87.7366C18.0829 86.0988 15.9132 84.263 13.9219 82.2489C5.33501 73.5794 0.0341797 61.6559 0.0341797 48.5C0.0341797 35.3441 5.33501 23.4206 13.9219 14.7511C16.0309 12.6196 18.3399 10.6858 20.8177 8.97744C28.567 3.63069 37.9661 0.5 48.0989 0.5C58.2318 0.5 67.6308 3.63069 75.3802 8.97744C77.2733 10.2804 79.0665 11.7183 80.7476 13.2759C83.6924 15.9952 86.2937 19.0809 88.4812 22.4585C90.1762 25.0721 91.6221 27.8619 92.7875 30.7929C94.9669 36.2728 96.1637 42.2463 96.1637 48.5Z" fill="white"/>
<path d="M73.4552 44.1823C72.1175 40.3077 66.6321 40.3077 65.5621 43.5142C64.4919 46.7206 68.1041 48.5909 73.723 50.4616C79.3418 52.3321 82.8203 57.2756 82.1514 61.6843C81.4824 66.0929 79.6094 71.8381 68.5055 71.8381C61.5656 71.8381 57.7088 67.5063 55.792 64.2577L62.0838 60.4818C62.0838 60.4818 64.2243 65.0244 68.2378 65.0244C72.2513 65.0244 73.8566 63.6884 73.8566 60.6155C73.8566 56.8747 60.8795 55.5387 58.8728 49.1257C56.8661 42.7126 59.5418 33.6277 68.9065 34.2956C74.7597 34.7131 78.052 37.5834 79.6982 39.6774L73.4552 44.1823Z" fill="#1D1D1D"/>
<path d="M44.2903 34.9639C44.2903 34.9639 44.2903 57.5428 44.2903 60.6157C44.2903 63.6885 41.6146 65.292 38.939 64.7574C36.2633 64.223 35.0593 61.0166 35.0593 61.0166L28.9053 65.1583C28.9053 65.1583 30.243 71.304 38.6714 71.8385C47.0998 72.3729 51.9159 67.296 51.9159 63.0206C51.9159 58.7452 51.9159 34.9639 51.9159 34.9639H44.2903Z" fill="#1D1D1D"/>
<path d="M13.9219 8.97754V82.249C15.9132 84.2631 18.0829 86.0987 20.4057 87.7367H75.7921C77.648 86.428 79.4058 84.9919 81.0557 83.4383H18.2261V13.276H88.481V74.5416C90.176 71.928 91.6219 69.1382 92.7873 66.2072V8.97754H13.9219Z" fill="#1D1D1D"/>
<path d="M16.5294 71.7043C20.7409 71.7043 24.155 68.2948 24.155 64.0889C24.155 59.8831 20.7409 56.4736 16.5294 56.4736C12.3179 56.4736 8.90381 59.8831 8.90381 64.0889C8.90381 68.2948 12.3179 71.7043 16.5294 71.7043Z" fill="white"/>
</g>
<path d="M40.36 128C38.52 128 37.15 127.615 36.25 126.845C35.36 126.075 34.86 124.85 34.75 123.17C34.73 122.91 34.785 122.71 34.915 122.57C35.045 122.42 35.245 122.345 35.515 122.345C36.015 122.345 36.285 122.61 36.325 123.14C36.405 124.38 36.745 125.24 37.345 125.72C37.955 126.19 38.96 126.425 40.36 126.425H41.59C42.62 126.425 43.43 126.3 44.02 126.05C44.61 125.8 45.03 125.38 45.28 124.79C45.54 124.19 45.67 123.375 45.67 122.345V109.46C45.67 108.93 45.93 108.665 46.45 108.665C46.98 108.665 47.245 108.93 47.245 109.46V122.345C47.245 124.325 46.795 125.765 45.895 126.665C45.005 127.555 43.57 128 41.59 128H40.36ZM57.6782 127.97C55.8882 127.97 54.5582 127.575 53.6882 126.785C52.8282 125.985 52.3682 124.73 52.3082 123.02C52.2982 122.78 52.3632 122.59 52.5032 122.45C52.6532 122.3 52.8482 122.225 53.0882 122.225C53.3282 122.225 53.5182 122.295 53.6582 122.435C53.7982 122.575 53.8782 122.765 53.8982 123.005C53.9382 124.265 54.2382 125.145 54.7982 125.645C55.3582 126.145 56.3182 126.395 57.6782 126.395H61.9982C63.4182 126.395 64.4032 126.12 64.9532 125.57C65.5132 125.01 65.7932 124.03 65.7932 122.63C65.7932 121.21 65.5132 120.225 64.9532 119.675C64.4032 119.115 63.4182 118.835 61.9982 118.835H57.8882C56.1282 118.835 54.8382 118.425 54.0182 117.605C53.1982 116.785 52.7882 115.5 52.7882 113.75C52.7882 112 53.1932 110.715 54.0032 109.895C54.8232 109.075 56.1082 108.665 57.8582 108.665H62.0582C63.7382 108.665 64.9832 109.04 65.7932 109.79C66.6132 110.54 67.0532 111.72 67.1132 113.33C67.1332 113.57 67.0682 113.765 66.9182 113.915C66.7782 114.055 66.5832 114.125 66.3332 114.125C66.1032 114.125 65.9182 114.055 65.7782 113.915C65.6382 113.775 65.5582 113.585 65.5382 113.345C65.4982 112.195 65.2182 111.39 64.6982 110.93C64.1782 110.47 63.2982 110.24 62.0582 110.24H57.8582C56.5482 110.24 55.6382 110.5 55.1282 111.02C54.6182 111.53 54.3632 112.44 54.3632 113.75C54.3632 115.06 54.6182 115.975 55.1282 116.495C55.6482 117.005 56.5682 117.26 57.8882 117.26H61.9982C63.8582 117.26 65.2182 117.695 66.0782 118.565C66.9382 119.425 67.3682 120.78 67.3682 122.63C67.3682 124.48 66.9382 125.835 66.0782 126.695C65.2182 127.545 63.8582 127.97 61.9982 127.97H57.6782Z" fill="white"/>
<defs>
<clipPath id="clip0">
<rect width="96.1295" height="96" fill="white" transform="translate(0.0341797 0.5)"/>
</clipPath>
</defs>
</svg>
