<svg width="102" height="134" viewBox="0 0 102 134" fill="none" xmlns="http://www.w3.org/2000/svg">
<path d="M59.1257 75.2495C59.8454 76.2877 60.2851 76.208 60.8447 75.9683C61.4043 75.7286 90.1933 66.0255 91.0728 65.7064C91.9523 65.3869 91.6727 65.1073 91.3931 64.6678C91.1131 64.2286 81.5168 51.2114 81.0367 50.4527C80.557 49.6941 80.317 49.8537 79.5574 50.0934L49.0396 58.0237C49.0396 58.0237 58.406 74.2109 59.1257 75.2495ZM93.512 61.994V46.7573C90.0785 47.6708 85.7358 48.8259 84.0214 49.2812C86.6077 52.7369 90.6511 58.1451 93.512 61.994ZM83.9919 30.5151C83.5216 30.6218 73.1073 32.5013 72.4656 32.5865C71.8244 32.672 72.0381 33.035 72.2947 33.398L81.4592 45.9556C81.4592 45.9556 92.6649 43.1794 93.3493 43.0299C93.4047 43.0177 93.4591 43.0047 93.512 42.9914V41.3286C91.4752 38.7494 85.9261 31.7269 85.4464 31.0707C84.8692 30.2804 84.4626 30.4087 83.9919 30.5151Z" fill="white"/>
<path d="M18.4661 10.7903C20.7213 10.6879 20.9272 11.2003 21.9179 12.6677L46.8093 54.2263L78.1076 46.7388C76.3735 44.2839 68.5012 33.1379 67.7401 32.0742C66.8851 30.8782 67.7617 30.323 69.1518 30.0883C70.5416 29.8533 82.517 27.8458 83.5433 27.6963C84.57 27.5468 85.3829 27.1838 87.0505 29.1913C87.9041 30.2184 90.7973 33.8164 93.5125 37.1891V17.7499C93.5125 12.9983 91.8229 8.93521 88.4446 5.56105C85.0659 2.18726 80.9973 0.5 76.2393 0.5H18.6619C13.9038 0.5 9.83524 2.18726 6.45653 5.56105C4.51869 7.497 3.13935 9.65935 2.31348 12.0481C7.95534 11.5852 16.8881 10.8622 18.4665 10.7903H18.4661Z" fill="white"/>
<path d="M61.9489 80.8438C59.3097 81.6424 58.1262 82.0388 56.4071 79.6428C55.1195 77.8485 48.1566 65.3243 44.7427 59.1503C38.2814 60.84 26.4568 63.922 23.0468 64.7403C19.7188 65.5388 18.2974 63.5461 17.7507 62.3181C17.3675 61.4564 7.61027 40.4481 1.38867 26.9688V75.2506C1.38867 80.0026 3.07821 84.0649 6.45656 87.4394C9.83528 90.8132 13.9038 92.5005 18.6619 92.5005H76.2393C80.9973 92.5005 85.0659 90.8132 88.4446 87.4394C91.823 84.0649 93.5125 80.0026 93.5125 75.2506V69.5793C86.4449 72.161 63.727 80.3059 61.9489 80.8438Z" fill="white"/>
<path d="M23.1302 59.9001C24.0658 59.6862 41.5956 55.4967 41.9699 55.4165C42.3441 55.3364 42.5845 55.1229 42.1836 54.4293C41.7828 53.7357 18.8166 14.1472 18.8166 14.1472C18.6046 13.7838 18.6651 13.6627 18.0889 13.6929C17.5754 13.7202 4.58056 14.8781 1.57214 15.129C1.48334 15.7642 1.42797 16.4037 1.40625 17.0448C4.46037 23.2889 21.9898 59.3923 22.0881 59.6862C22.1949 60.0068 22.1949 60.1135 23.1302 59.9001Z" fill="white"/>
<path d="M3.6 128C3.07 128 2.805 127.735 2.805 127.205V109.46C2.805 108.93 3.07 108.665 3.6 108.665C4.12 108.665 4.38 108.93 4.38 109.46V126.425H13.5C14.03 126.425 14.295 126.685 14.295 127.205C14.295 127.735 14.03 128 13.5 128H3.6ZM21.4341 128C19.8741 128 18.7291 127.64 17.9991 126.92C17.2791 126.19 16.9191 125.045 16.9191 123.485C16.9191 121.925 17.2841 120.78 18.0141 120.05C18.7441 119.32 19.8841 118.955 21.4341 118.955H28.2591C28.2391 117.635 27.9391 116.715 27.3591 116.195C26.7891 115.665 25.8141 115.4 24.4341 115.4H22.6941C21.4241 115.4 20.4941 115.535 19.9041 115.805C19.3141 116.075 18.9491 116.535 18.8091 117.185C18.7391 117.435 18.6441 117.62 18.5241 117.74C18.4141 117.85 18.2341 117.905 17.9841 117.905C17.7241 117.905 17.5191 117.835 17.3691 117.695C17.2291 117.545 17.1791 117.345 17.2191 117.095C17.3491 115.955 17.8641 115.125 18.7641 114.605C19.6741 114.085 20.9841 113.825 22.6941 113.825H24.4341C26.3041 113.825 27.6691 114.26 28.5291 115.13C29.3991 115.99 29.8341 117.355 29.8341 119.225V127.205C29.8341 127.735 29.5741 128 29.0541 128C28.5241 128 28.2591 127.735 28.2591 127.205V125.72C27.2991 127.24 25.5841 128 23.1141 128H21.4341ZM21.4341 126.425H23.1141C24.0841 126.425 24.9341 126.32 25.6641 126.11C26.4041 125.89 26.9991 125.54 27.4491 125.06C27.8991 124.58 28.1691 123.94 28.2591 123.14V120.53H21.4341C20.3241 120.53 19.5541 120.745 19.1241 121.175C18.7041 121.595 18.4941 122.365 18.4941 123.485C18.4941 124.595 18.7041 125.365 19.1241 125.795C19.5541 126.215 20.3241 126.425 21.4341 126.425ZM35.973 128C35.443 128 35.178 127.735 35.178 127.205V114.605C35.178 114.085 35.443 113.825 35.973 113.825C36.493 113.825 36.753 114.085 36.753 114.605V116.915C37.273 115.915 38.023 115.15 39.003 114.62C39.993 114.09 41.163 113.825 42.513 113.825C43.043 113.825 43.308 114.085 43.308 114.605C43.308 115.135 43.043 115.4 42.513 115.4C40.733 115.4 39.353 115.805 38.373 116.615C37.393 117.415 36.853 118.56 36.753 120.05V127.205C36.753 127.735 36.493 128 35.973 128ZM49.7934 128C48.2334 128 47.0884 127.64 46.3584 126.92C45.6384 126.19 45.2784 125.045 45.2784 123.485C45.2784 121.925 45.6434 120.78 46.3734 120.05C47.1034 119.32 48.2434 118.955 49.7934 118.955H56.6184C56.5984 117.635 56.2984 116.715 55.7184 116.195C55.1484 115.665 54.1734 115.4 52.7934 115.4H51.0534C49.7834 115.4 48.8534 115.535 48.2634 115.805C47.6734 116.075 47.3084 116.535 47.1684 117.185C47.0984 117.435 47.0034 117.62 46.8834 117.74C46.7734 117.85 46.5934 117.905 46.3434 117.905C46.0834 117.905 45.8784 117.835 45.7284 117.695C45.5884 117.545 45.5384 117.345 45.5784 117.095C45.7084 115.955 46.2234 115.125 47.1234 114.605C48.0334 114.085 49.3434 113.825 51.0534 113.825H52.7934C54.6634 113.825 56.0284 114.26 56.8884 115.13C57.7584 115.99 58.1934 117.355 58.1934 119.225V127.205C58.1934 127.735 57.9334 128 57.4134 128C56.8834 128 56.6184 127.735 56.6184 127.205V125.72C55.6584 127.24 53.9434 128 51.4734 128H49.7934ZM49.7934 126.425H51.4734C52.4434 126.425 53.2934 126.32 54.0234 126.11C54.7634 125.89 55.3584 125.54 55.8084 125.06C56.2584 124.58 56.5284 123.94 56.6184 123.14V120.53H49.7934C48.6834 120.53 47.9134 120.745 47.4834 121.175C47.0634 121.595 46.8534 122.365 46.8534 123.485C46.8534 124.595 47.0634 125.365 47.4834 125.795C47.9134 126.215 48.6834 126.425 49.7934 126.425ZM68.6895 127.4C68.5795 127.64 68.4445 127.8 68.2845 127.88C68.1245 127.96 67.9395 128 67.7295 128C67.2895 128 66.9795 127.795 66.7995 127.385L61.2345 114.92C61.0245 114.43 61.1695 114.09 61.6695 113.9C62.1395 113.7 62.4795 113.84 62.6895 114.32L68.2395 126.74H67.2795L73.1895 114.305C73.2995 114.075 73.4445 113.925 73.6245 113.855C73.8045 113.785 74.0095 113.8 74.2395 113.9C74.7295 114.12 74.8645 114.47 74.6445 114.95L68.6895 127.4ZM78.8578 121.52V122.615C78.8578 124.025 79.1378 125.015 79.6978 125.585C80.2678 126.145 81.2678 126.425 82.6978 126.425H85.1578C86.4178 126.425 87.3328 126.265 87.9028 125.945C88.4828 125.615 88.8278 125.05 88.9378 124.25C88.9778 124 89.0578 123.81 89.1778 123.68C89.3078 123.55 89.5028 123.485 89.7628 123.485C90.0228 123.485 90.2178 123.56 90.3478 123.71C90.4878 123.85 90.5428 124.05 90.5128 124.31C90.3828 125.57 89.8778 126.5 88.9978 127.1C88.1178 127.7 86.8378 128 85.1578 128H82.6978C80.8278 128 79.4578 127.57 78.5878 126.71C77.7178 125.84 77.2828 124.475 77.2828 122.615V119.225C77.2828 117.335 77.7178 115.96 78.5878 115.1C79.4578 114.23 80.8278 113.805 82.6978 113.825H85.1578C87.0278 113.825 88.3928 114.26 89.2528 115.13C90.1228 115.99 90.5578 117.355 90.5578 119.225V120.725C90.5578 121.255 90.2978 121.52 89.7778 121.52H78.8578ZM82.6978 115.4C81.2678 115.38 80.2678 115.655 79.6978 116.225C79.1378 116.785 78.8578 117.785 78.8578 119.225V119.945H88.9828V119.225C88.9828 117.795 88.7028 116.8 88.1428 116.24C87.5828 115.68 86.5878 115.4 85.1578 115.4H82.6978ZM99.889 128C98.469 128 97.424 127.67 96.754 127.01C96.094 126.35 95.764 125.315 95.764 123.905V107.975C95.764 107.455 96.029 107.195 96.559 107.195C97.079 107.195 97.339 107.455 97.339 107.975V123.905C97.339 124.875 97.519 125.54 97.879 125.9C98.239 126.25 98.904 126.425 99.874 126.425C100.414 126.425 100.684 126.685 100.684 127.205C100.694 127.735 100.429 128 99.889 128Z" fill="white"/>
</svg>
