<svg width="41" height="41" viewBox="0 0 41 41" fill="none" xmlns="http://www.w3.org/2000/svg">
<rect x="0.278564" y="0.738281" width="40" height="40" rx="8" fill="#ECBD2C"/>
<path d="M32.0118 22.7495V30.7324H27.2285V23.2363C27.2285 21.3866 26.531 20.121 24.8369 20.121C23.5414 20.121 22.7442 20.9972 22.4453 21.776C22.3456 22.0681 22.246 22.4575 22.246 22.9442V30.7324H17.4627C17.4627 30.7324 17.5623 18.0766 17.4627 16.8111H22.246V18.7581C22.8439 17.7846 24.0397 16.4216 26.531 16.4216C29.6201 16.4216 32.0118 18.466 32.0118 22.7495ZM12.4801 10.0938C10.8857 10.0938 9.78955 11.1646 9.78955 12.5276C9.78955 13.8905 10.7861 14.9614 12.3805 14.9614C14.0746 14.9614 15.0711 13.8905 15.0711 12.5276C15.1707 11.0673 14.1742 10.0938 12.4801 10.0938ZM10.0885 30.7324H14.8718V16.8111H10.0885V30.7324Z" fill="#1D1D1D"/>
</svg>
