<svg width="64" height="78" viewBox="0 0 64 78" fill="none" xmlns="http://www.w3.org/2000/svg">
<path d="M60.2116 30.7624L35.3066 5.94658C33.7417 4.38729 31.1684 4.34989 29.5588 5.86305L3.52732 30.3358C1.91778 31.8489 1.88158 34.3396 3.44648 35.8989L28.3515 60.7148C29.9164 62.2741 32.4897 62.3115 34.0993 60.7983L60.1308 36.3256C61.7403 34.8124 61.7765 32.3217 60.2116 30.7624Z" fill="#ECBD2C"/>
<g filter="url(#filter0_d)">
<path d="M31.2292 0.674423L32.6463 0.0533447L51.736 28.0317L50.7373 30.2018L16.4959 35.1564L16.0247 33.7216L39.1675 23.8937L31.2292 0.674423Z" fill="white"/>
</g>
<g filter="url(#filter1_d)">
<path d="M24.8353 43.6713L32.8129 66.9077L31.3564 67.5118L12.249 39.5715L13.2474 37.4012L47.5073 32.4086L48.0178 33.8604L24.8353 43.6713Z" fill="white"/>
</g>
<defs>
<filter id="filter0_d" x="11.0247" y="0.0533447" width="45.7113" height="45.1031" filterUnits="userSpaceOnUse" color-interpolation-filters="sRGB">
<feFlood flood-opacity="0" result="BackgroundImageFix"/>
<feColorMatrix in="SourceAlpha" type="matrix" values="0 0 0 0 0 0 0 0 0 0 0 0 0 0 0 0 0 0 127 0"/>
<feOffset dy="5"/>
<feGaussianBlur stdDeviation="2.5"/>
<feColorMatrix type="matrix" values="0 0 0 0 0 0 0 0 0 0 0 0 0 0 0 0 0 0 0.3 0"/>
<feBlend mode="normal" in2="BackgroundImageFix" result="effect1_dropShadow"/>
<feBlend mode="normal" in="SourceGraphic" in2="effect1_dropShadow" result="shape"/>
</filter>
<filter id="filter1_d" x="7.24902" y="32.4086" width="45.7688" height="45.1032" filterUnits="userSpaceOnUse" color-interpolation-filters="sRGB">
<feFlood flood-opacity="0" result="BackgroundImageFix"/>
<feColorMatrix in="SourceAlpha" type="matrix" values="0 0 0 0 0 0 0 0 0 0 0 0 0 0 0 0 0 0 127 0"/>
<feOffset dy="5"/>
<feGaussianBlur stdDeviation="2.5"/>
<feColorMatrix type="matrix" values="0 0 0 0 0 0 0 0 0 0 0 0 0 0 0 0 0 0 0.3 0"/>
<feBlend mode="normal" in2="BackgroundImageFix" result="effect1_dropShadow"/>
<feBlend mode="normal" in="SourceGraphic" in2="effect1_dropShadow" result="shape"/>
</filter>
</defs>
</svg>
