<svg width="87" height="104" viewBox="0 0 87 104" fill="none" xmlns="http://www.w3.org/2000/svg">
<path d="M83.6456 44.0733L47.2008 7.79362C45.6352 6.23507 43.0606 6.19766 41.4503 7.71006L3.39261 43.4547C1.78235 44.9671 1.74617 47.4566 3.31181 49.0152L39.7566 85.2949C41.3222 86.8534 43.8968 86.8909 45.5071 85.3785L83.5648 49.6338C85.175 48.1214 85.2112 45.6319 83.6456 44.0733Z" fill="#C6CA08"/>
<g filter="url(#filter0_d)">
<path d="M42.6525 1.60146L44.6047 0.746704L70.9017 39.2515L69.526 42.2381L22.3567 49.0568L21.7075 47.0823L53.5879 33.5567L42.6525 1.60146Z" fill="#24273A"/>
</g>
<g filter="url(#filter1_d)">
<path d="M33.8445 60.7754L44.8342 92.7542L42.8277 93.5856L16.5063 55.133L17.8817 52.1463L65.0764 45.2753L65.7797 47.2732L33.8445 60.7754Z" fill="#24273A"/>
</g>
<defs>
<filter id="filter0_d" x="16.7075" y="0.746704" width="59.1941" height="58.3101" filterUnits="userSpaceOnUse" color-interpolation-filters="sRGB">
<feFlood flood-opacity="0" result="BackgroundImageFix"/>
<feColorMatrix in="SourceAlpha" type="matrix" values="0 0 0 0 0 0 0 0 0 0 0 0 0 0 0 0 0 0 127 0"/>
<feOffset dy="5"/>
<feGaussianBlur stdDeviation="2.5"/>
<feColorMatrix type="matrix" values="0 0 0 0 0 0 0 0 0 0 0 0 0 0 0 0 0 0 0.3 0"/>
<feBlend mode="normal" in2="BackgroundImageFix" result="effect1_dropShadow"/>
<feBlend mode="normal" in="SourceGraphic" in2="effect1_dropShadow" result="shape"/>
</filter>
<filter id="filter1_d" x="11.5063" y="45.2753" width="59.2734" height="58.3103" filterUnits="userSpaceOnUse" color-interpolation-filters="sRGB">
<feFlood flood-opacity="0" result="BackgroundImageFix"/>
<feColorMatrix in="SourceAlpha" type="matrix" values="0 0 0 0 0 0 0 0 0 0 0 0 0 0 0 0 0 0 127 0"/>
<feOffset dy="5"/>
<feGaussianBlur stdDeviation="2.5"/>
<feColorMatrix type="matrix" values="0 0 0 0 0 0 0 0 0 0 0 0 0 0 0 0 0 0 0.3 0"/>
<feBlend mode="normal" in2="BackgroundImageFix" result="effect1_dropShadow"/>
<feBlend mode="normal" in="SourceGraphic" in2="effect1_dropShadow" result="shape"/>
</filter>
</defs>
</svg>
