<svg width="97" height="134" viewBox="0 0 97 134" fill="none" xmlns="http://www.w3.org/2000/svg">
<g clip-path="url(#clip0)">
<path d="M96.4268 48.5C96.4268 51.4034 96.1679 54.2463 95.6736 57.0067C91.6538 79.4591 72.0002 96.5 48.3621 96.5C30.5526 96.5 15.0052 86.8274 6.70274 72.455C4.67614 68.9501 3.08324 65.1669 1.9924 61.1759C0.885969 57.1381 0.297363 52.8866 0.297363 48.5C0.297363 21.9903 21.8167 0.5 48.3621 0.5C70.2717 0.5 88.756 15.1391 94.5454 35.1579C95.7697 39.3937 96.4268 43.8704 96.4268 48.5Z" fill="white"/>
<path d="M24.7375 33.9199H7.03598L1.99219 61.1761C3.08303 65.167 4.67593 68.9502 6.70253 72.4551H8.34462L10.2986 61.8991H20.0253C31.8687 61.8991 35.0528 51.2804 35.8161 46.0649C36.5812 40.8514 32.7615 33.9199 24.7375 33.9199ZM27.3056 46.9444C26.8721 49.9009 24.6846 55.9214 17.9713 55.9214H11.405L14.3399 40.0579H21.0239C27.5392 40.0579 27.7391 43.9881 27.3056 46.9444Z" fill="#1D1D1D"/>
<path d="M94.5451 35.1582C93.0404 34.3823 91.2472 33.9199 89.1755 33.9199H71.474L64.3428 72.4553H72.7824L74.7364 61.8992H84.4631C89.7307 61.8992 93.2854 59.799 95.6729 57.0072C96.1676 54.2466 96.4265 51.4037 96.4265 48.5003C96.4265 43.8707 95.7694 39.394 94.5451 35.1582ZM91.7436 46.9446C91.3101 49.9011 89.1226 55.9215 82.4072 55.9215H75.843L78.778 40.0581H85.462C91.9772 40.0581 92.1771 43.9883 91.7436 46.9446Z" fill="#1D1D1D"/>
<path d="M58.3576 34.0475C54.9227 34.0475 50.3398 34.0475 48.1069 34.0475L50.031 23.6504H41.626L34.4946 62.1846H42.8996L47.0007 40.0248C48.5158 40.0248 50.5285 40.0248 52.3723 40.0248C55.9379 40.0248 58.3576 40.7879 57.8481 44.0945C57.3387 47.401 54.4098 62.0262 54.4098 62.0262H62.942C62.942 62.0262 66.253 45.7478 66.7624 41.1693C67.272 36.5909 63.0695 34.0475 58.3576 34.0475Z" fill="#1D1D1D"/>
</g>
<path d="M27.6 128C27.07 128 26.805 127.735 26.805 127.205V109.46C26.805 108.93 27.07 108.665 27.6 108.665H34.62C36.33 108.665 37.62 109.105 38.49 109.985C39.37 110.865 39.81 112.16 39.81 113.87V114.77C39.81 116.47 39.37 117.76 38.49 118.64C37.62 119.52 36.33 119.96 34.62 119.96H28.38V127.205C28.38 127.735 28.12 128 27.6 128ZM28.38 118.385H34.62C35.88 118.385 36.795 118.1 37.365 117.53C37.945 116.95 38.235 116.03 38.235 114.77V113.87C38.235 112.6 37.945 111.68 37.365 111.11C36.795 110.53 35.88 110.24 34.62 110.24H28.38V118.385ZM44.4164 128C44.1764 128 43.9814 127.93 43.8314 127.79C43.6914 127.64 43.6214 127.445 43.6214 127.205V109.46C43.6214 109.22 43.6914 109.03 43.8314 108.89C43.9814 108.74 44.1764 108.665 44.4164 108.665C44.6564 108.665 44.8464 108.74 44.9864 108.89C45.1264 109.03 45.1964 109.22 45.1964 109.46V117.41H57.7814V109.46C57.7814 109.22 57.8514 109.03 57.9914 108.89C58.1314 108.74 58.3214 108.665 58.5614 108.665C58.8014 108.665 58.9914 108.74 59.1314 108.89C59.2814 109.03 59.3564 109.22 59.3564 109.46V127.205C59.3564 127.445 59.2814 127.64 59.1314 127.79C58.9914 127.93 58.8014 128 58.5614 128C58.3214 128 58.1314 127.93 57.9914 127.79C57.8514 127.64 57.7814 127.445 57.7814 127.205V118.985H45.1964V127.205C45.1964 127.445 45.1264 127.64 44.9864 127.79C44.8464 127.93 44.6564 128 44.4164 128ZM65.7738 128C65.2438 128 64.9788 127.735 64.9788 127.205V109.46C64.9788 108.93 65.2438 108.665 65.7738 108.665H72.7938C74.5038 108.665 75.7938 109.105 76.6638 109.985C77.5438 110.865 77.9838 112.16 77.9838 113.87V114.77C77.9838 116.47 77.5438 117.76 76.6638 118.64C75.7938 119.52 74.5038 119.96 72.7938 119.96H66.5538V127.205C66.5538 127.735 66.2938 128 65.7738 128ZM66.5538 118.385H72.7938C74.0538 118.385 74.9688 118.1 75.5388 117.53C76.1188 116.95 76.4088 116.03 76.4088 114.77V113.87C76.4088 112.6 76.1188 111.68 75.5388 111.11C74.9688 110.53 74.0538 110.24 72.7938 110.24H66.5538V118.385Z" fill="white"/>
<defs>
<clipPath id="clip0">
<rect width="96.1295" height="96" fill="white" transform="translate(0.297363 0.5)"/>
</clipPath>
</defs>
</svg>
