<svg width="51" height="52" viewBox="0 0 51 52" fill="none" xmlns="http://www.w3.org/2000/svg">
<path d="M21.25 34.7983V32.6733H6.39625L6.375 41.1733C6.375 43.5321 8.26625 45.4233 10.625 45.4233H40.375C42.7337 45.4233 44.625 43.5321 44.625 41.1733V32.6733H29.75V34.7983H21.25ZM42.5 15.6733H33.9788V11.4233L29.7288 7.17334H21.2288L16.9787 11.4233V15.6733H8.5C6.1625 15.6733 4.25 17.5858 4.25 19.9233V26.2983C4.25 28.6571 6.14125 30.5483 8.5 30.5483H21.25V26.2983H29.75V30.5483H42.5C44.8375 30.5483 46.75 28.6358 46.75 26.2983V19.9233C46.75 17.5858 44.8375 15.6733 42.5 15.6733ZM29.75 15.6733H21.25V11.4233H29.75V15.6733Z" fill="#0E1330"/>
</svg>
