<svg width="61" height="60" viewBox="0 0 61 60" fill="none" xmlns="http://www.w3.org/2000/svg">
<g clip-path="url(#clip0)">
<path d="M23.7759 35H24.8759C25.2896 35.0008 25.6598 34.7426 25.8019 34.354C25.9239 34.034 26.0549 33.721 26.1959 33.411C26.3711 33.034 26.2911 32.5876 25.9959 32.295L25.2119 31.51C24.048 30.3359 24.0501 28.4424 25.2169 27.271L28.0429 24.445C29.2158 23.279 31.11 23.279 32.2829 24.445L33.0669 25.228C33.3601 25.5221 33.8058 25.602 34.1829 25.428C34.4929 25.287 34.8059 25.156 35.1269 25.028C35.5175 24.8869 35.7774 24.5154 35.7759 24.1V23C35.7759 21.3431 37.119 20 38.7759 20H42.7759C44.4328 20 45.7759 21.3431 45.7759 23V24.1C45.7751 24.5138 46.0333 24.8839 46.4219 25.026C46.7419 25.148 47.0549 25.279 47.3649 25.42C47.742 25.5944 48.1878 25.5145 48.4809 25.22L49.2659 24.436C50.4386 23.2708 52.3321 23.2708 53.5049 24.436L56.3309 27.271C57.4969 28.4439 57.4969 30.3381 56.3309 31.511L55.5479 32.295C55.2526 32.5876 55.1726 33.034 55.3479 33.411C55.4889 33.721 55.6199 34.034 55.7429 34.355C55.886 34.7459 56.2596 35.0043 56.6759 35H57.7759C59.4328 35 60.7759 36.3431 60.7759 38V42C60.7759 43.6569 59.4328 45 57.7759 45H56.6759C56.2621 44.9993 55.892 45.2574 55.7499 45.646C55.6279 45.966 55.4969 46.279 55.3559 46.589C55.1806 46.966 55.2606 47.4124 55.5559 47.705L56.3399 48.49C57.5051 49.6628 57.5051 51.5563 56.3399 52.729L53.5139 55.555C52.341 56.721 50.4468 56.721 49.2739 55.555L48.4899 54.772C48.1966 54.4779 47.751 54.398 47.3739 54.572C47.0639 54.713 46.7509 54.844 46.4299 54.972C46.0373 55.1115 45.7751 55.4834 45.7759 55.9V57C45.7759 58.6569 44.4328 60 42.7759 60H38.7759C37.119 60 35.7759 58.6569 35.7759 57V55.9C35.7766 55.4863 35.5185 55.1161 35.1299 54.974C34.8099 54.852 34.4969 54.721 34.1869 54.58C33.8098 54.4056 33.364 54.4855 33.0709 54.78L32.2859 55.564C31.1115 56.7274 29.2185 56.7251 28.0469 55.559L25.2209 52.733C24.0549 51.5601 24.0549 49.6659 25.2209 48.493L26.0039 47.709C26.2991 47.4164 26.3791 46.97 26.2039 46.593C26.0629 46.283 25.9319 45.97 25.8039 45.649C25.6628 45.2584 25.2913 44.9985 24.8759 45H23.7759C22.119 45 20.7759 43.6569 20.7759 42V38C20.7759 36.3431 22.119 35 23.7759 35ZM22.7759 42C22.7759 42.5523 23.2236 43 23.7759 43H24.8759C26.119 43.0046 27.2315 43.773 27.6759 44.934C27.7819 45.214 27.8965 45.4896 28.0199 45.761C28.534 46.896 28.2955 48.2305 27.4199 49.117L26.6379 49.9C26.2471 50.2903 26.2468 50.9235 26.6371 51.3143C26.6374 51.3145 26.6376 51.3148 26.6379 51.315L29.4639 54.141C29.8544 54.5314 30.4874 54.5314 30.8779 54.141L31.6619 53.358C32.548 52.4816 33.883 52.243 35.0179 52.758C35.2889 52.881 35.5649 52.996 35.8429 53.102C37.003 53.5463 37.7709 54.6578 37.7759 55.9V57C37.7759 57.5523 38.2236 58 38.7759 58H42.7759C43.3281 58 43.7759 57.5523 43.7759 57V55.9C43.7805 54.6569 44.5489 53.5444 45.7099 53.1C45.9899 52.994 46.2655 52.8794 46.5369 52.756C47.6719 52.2421 49.0063 52.4808 49.8929 53.356L50.6759 54.138C51.0661 54.5288 51.6994 54.5291 52.0901 54.1388C52.0904 54.1385 52.0906 54.1383 52.0909 54.138L54.9169 51.315C55.3073 50.9245 55.3073 50.2915 54.9169 49.901L54.1339 49.117C53.2583 48.2305 53.0198 46.896 53.5339 45.761C53.6569 45.49 53.7719 45.214 53.8779 44.936C54.3211 43.7746 55.4329 43.0055 56.6759 43H57.7759C58.3281 43 58.7759 42.5523 58.7759 42V38C58.7759 37.4478 58.3281 37 57.7759 37H56.6759C55.4328 36.9954 54.3203 36.227 53.8759 35.066C53.7699 34.786 53.6553 34.5104 53.5319 34.239C53.0178 33.104 53.2564 31.7695 54.1319 30.883L54.9179 30.1C55.3086 29.7098 55.309 29.0765 54.9186 28.6858C54.9184 28.6855 54.9181 28.6853 54.9179 28.685L52.0919 25.859C51.7014 25.4686 51.0684 25.4686 50.6779 25.859L49.8939 26.642C49.0078 27.5184 47.6728 27.757 46.5379 27.242C46.2669 27.119 45.9909 27.004 45.7129 26.898C44.5511 26.4551 43.7815 25.3433 43.7759 24.1V23C43.7759 22.4478 43.3281 22 42.7759 22H38.7759C38.2236 22 37.7759 22.4478 37.7759 23V24.1C37.7713 25.3431 37.0029 26.4556 35.8419 26.9C35.5619 27.006 35.2863 27.1206 35.0149 27.244C33.88 27.759 32.545 27.5204 31.6589 26.644L30.8759 25.862C30.4839 25.4743 29.8529 25.4743 29.4609 25.862L26.6349 28.688C26.2445 29.0785 26.2445 29.7115 26.6349 30.102L27.4179 30.886C28.2934 31.7725 28.532 33.107 28.0179 34.242C27.8949 34.513 27.7799 34.789 27.6739 35.067C27.2296 36.2271 26.1181 36.995 24.8759 37H23.7759C23.2236 37 22.7759 37.4478 22.7759 38V42Z" fill="#C6CA08"/>
<path d="M31.7958 39.6C31.8058 39.36 31.8228 39.121 31.8518 38.883C31.8838 38.627 31.9218 38.373 31.9748 38.124C32.0098 37.961 32.0558 37.8 32.0998 37.638C32.1558 37.432 32.2188 37.229 32.2888 37.029C32.3378 36.89 32.3888 36.752 32.4408 36.615C32.5696 36.2948 32.7168 35.9821 32.8818 35.679C32.8948 35.656 32.9028 35.631 32.9158 35.608C33.1759 35.145 33.4772 34.7061 33.8158 34.297C33.8448 34.261 33.8778 34.227 33.9078 34.192C34.0458 34.029 34.1878 33.871 34.3368 33.72C34.4148 33.639 34.4968 33.563 34.5788 33.485C34.6788 33.392 34.7788 33.3 34.8788 33.212C35.0002 33.1066 35.1238 33.0046 35.2498 32.906L35.4138 32.784C36.9612 31.625 38.8426 30.999 40.7758 31C40.8758 31 40.9758 31.015 41.0758 31.019C41.2888 31.025 41.5028 31.037 41.7178 31.059C41.8308 31.071 41.9448 31.084 42.0578 31.1C42.3838 31.1429 42.7073 31.2034 43.0268 31.281C47.8419 32.5253 50.7367 37.4375 49.4924 42.2526C48.6724 45.4256 46.1934 47.9026 43.0198 48.72C43.0038 48.72 42.9868 48.725 42.9698 48.729C42.6244 48.8151 42.2746 48.882 41.9218 48.929C41.6888 48.958 41.4558 48.964 41.2218 48.975C41.0658 48.983 40.9218 49.006 40.7588 49.006C40.4738 49.006 40.1778 48.987 39.8758 48.957C39.8438 48.957 39.8118 48.948 39.7758 48.944C39.5328 48.917 39.2868 48.881 39.0358 48.831C38.9358 48.812 38.8428 48.787 38.7468 48.765C38.5708 48.724 38.3958 48.681 38.2158 48.628C38.0758 48.586 37.9398 48.537 37.8028 48.489C37.6658 48.441 37.5238 48.389 37.3818 48.335C37.2398 48.281 37.1208 48.219 36.9918 48.159C36.8238 48.082 36.6568 48.006 36.4918 47.916H36.4858C35.5526 47.4164 34.6906 46.7939 33.9228 46.065C33.7154 45.8715 33.5351 45.6508 33.3868 45.409C32.6063 44.1578 32.0936 42.7584 31.8808 41.299C31.8528 41.106 31.8278 40.913 31.8128 40.716C31.7988 40.535 31.7888 40.355 31.7848 40.175C31.7848 40.118 31.7768 40.064 31.7768 40.007C31.7758 39.866 31.7898 39.736 31.7958 39.6ZM33.7888 40.255C33.7888 40.338 33.7958 40.421 33.8008 40.503C33.8188 40.745 33.8498 40.987 33.8908 41.23C34.2646 43.3091 35.5554 45.1091 37.4048 46.13C37.5288 46.195 37.6508 46.256 37.7728 46.312L37.8558 46.352C38.4368 46.6158 39.0501 46.8014 39.6798 46.904C39.7238 46.911 39.7688 46.919 39.8138 46.925C39.9388 46.943 40.0618 46.958 40.1838 46.969C40.3448 46.983 40.5068 46.991 40.6718 46.994C40.7418 46.994 40.8108 46.994 40.8808 46.994C41.1174 46.9913 41.3537 46.9766 41.5888 46.95L41.7088 46.936C41.9838 46.9 42.2566 46.8486 42.5258 46.782C46.2711 45.8234 48.5301 42.0101 47.5716 38.2649C46.9382 35.7901 45.0069 33.8569 42.5328 33.221V33.22C41.9583 33.0751 41.3683 33.0011 40.7758 33C40.4899 33.0016 40.2043 33.021 39.9208 33.058C39.8448 33.067 39.7698 33.081 39.6948 33.092C39.4788 33.126 39.2648 33.169 39.0538 33.223C38.9848 33.241 38.9158 33.257 38.8478 33.276C38.3161 33.4295 37.8042 33.645 37.3228 33.918C37.2458 33.963 37.1708 34.01 37.0948 34.057C36.9368 34.157 36.7838 34.257 36.6328 34.371C36.5518 34.43 36.4698 34.488 36.3918 34.551C36.1956 34.7078 36.0077 34.8746 35.8288 35.051C35.7578 35.123 35.6928 35.202 35.6238 35.277C35.5088 35.402 35.3968 35.53 35.2898 35.665C35.2158 35.758 35.1448 35.854 35.0748 35.951C34.9748 36.095 34.8748 36.245 34.7848 36.397C34.7348 36.48 34.6848 36.561 34.6338 36.646C34.5048 36.8834 34.3899 37.1281 34.2898 37.379C34.2498 37.479 34.2158 37.579 34.1798 37.679C34.1148 37.863 34.0588 38.049 34.0098 38.237C33.9848 38.337 33.9568 38.426 33.9358 38.523C33.8774 38.7933 33.8351 39.0668 33.8088 39.342C33.8028 39.415 33.8028 39.489 33.7978 39.562C33.7838 39.792 33.7798 40.023 33.7888 40.255Z" fill="#C6CA08"/>
<path d="M3.77582 21H6.92082C7.34019 21.0042 7.71532 20.7401 7.85282 20.344C8.16294 19.4151 8.53819 18.5091 8.97582 17.633C9.16157 17.2546 9.08419 16.7997 8.78382 16.504L6.55382 14.271C5.38332 13.0996 5.38332 11.2014 6.55382 10.03L10.8058 5.785C11.9772 4.6145 13.8754 4.6145 15.0468 5.785L17.2758 8.013C17.5712 8.31325 18.0254 8.391 18.4038 8.206C19.2801 7.76613 20.1863 7.38888 21.1158 7.077C21.5136 6.94088 21.7796 6.56537 21.7758 6.145V3C21.7758 1.34312 23.1189 0 24.7758 0H30.7758C32.4327 0 33.7758 1.34312 33.7758 3V6.145C33.7716 6.56437 34.0356 6.9395 34.4318 7.077C35.3608 7.38875 36.2668 7.76575 37.1428 8.205C37.5212 8.39137 37.9763 8.314 38.2718 8.013L40.5048 5.783C41.6776 4.61588 43.5731 4.61588 44.7458 5.783L48.9898 10.027C50.1609 11.1985 50.1609 13.0975 48.9898 14.269L45.7108 17.554C45.3142 17.9383 44.6811 17.9282 44.2968 17.5315C43.9219 17.1445 43.9211 16.53 44.2948 16.142L47.5758 12.858C47.9662 12.4675 47.9662 11.8345 47.5758 11.444L43.3318 7.2C42.9413 6.80962 42.3083 6.80962 41.9178 7.2L39.6838 9.43C38.7799 10.3393 37.3949 10.5665 36.2478 9.994C35.4557 9.59738 34.6367 9.25688 33.7968 8.975C32.5846 8.56463 31.7706 7.42488 31.7758 6.145V3C31.7758 2.44775 31.3281 2 30.7758 2H24.7758C24.2236 2 23.7758 2.44775 23.7758 3V6.145C23.7809 7.42462 22.9669 8.564 21.7548 8.974C20.9146 9.256 20.0952 9.59675 19.3028 9.994C18.1554 10.5635 16.7723 10.336 15.8678 9.429L13.6338 7.2C13.2433 6.80962 12.6103 6.80962 12.2198 7.2L7.97582 11.445C7.58607 11.8354 7.58607 12.4676 7.97582 12.858L10.2058 15.092C11.1142 15.9964 11.3413 17.3808 10.7698 18.528C10.3732 19.3201 10.0327 20.1391 9.75082 20.979C9.34069 22.1915 8.20082 23.0055 6.92082 23H3.77582C3.22357 23 2.77582 23.4478 2.77582 24V30C2.77582 30.5522 3.22357 31 3.77582 31H6.92082C8.20044 30.9949 9.33982 31.8089 9.74982 33.021C10.0317 33.8613 10.3726 34.6806 10.7698 35.473C11.3403 36.6203 11.1127 38.0039 10.2048 38.908L7.97482 41.142C7.58444 41.5325 7.58444 42.1655 7.97482 42.556L12.2208 46.8C12.6112 47.1898 13.2434 47.1898 13.6338 46.8L16.9198 43.521C17.3041 43.1242 17.9372 43.1143 18.3338 43.4985C18.7306 43.8828 18.7406 44.5159 18.3563 44.9125C18.3483 44.9207 18.3401 44.929 18.3318 44.937L15.0468 48.216C13.8754 49.3865 11.9772 49.3865 10.8058 48.216L6.56182 43.973C5.39069 42.8015 5.39069 40.9025 6.56182 39.731L8.78882 37.5C9.08882 37.2045 9.16644 36.7504 8.98182 36.372C8.54194 35.4958 8.16469 34.5895 7.85282 33.66C7.71669 33.2622 7.34119 32.9963 6.92082 33H3.77582C2.11894 33 0.775814 31.6569 0.775814 30V24C0.775814 22.3431 2.11894 21 3.77582 21Z" fill="#C6CA08"/>
<path d="M18.5839 17.8077C23.6636 12.7386 31.8881 12.7386 36.9679 17.8077C37.3515 18.205 37.3405 18.8381 36.9432 19.2217C36.5557 19.596 35.9414 19.596 35.5539 19.2217C31.287 14.8972 24.3224 14.8506 19.9979 19.1175C15.6734 23.3843 15.6267 30.349 19.8936 34.6735C19.9281 34.7085 19.9629 34.7432 19.9979 34.7777C20.3951 35.1615 20.4061 35.7945 20.0224 36.1917C19.6386 36.589 19.0056 36.6 18.6084 36.2162C18.6001 36.2082 18.5919 36.2 18.5839 36.1917C13.5147 31.112 13.5147 22.8875 18.5839 17.8077Z" fill="#C6CA08"/>
</g>
<defs>
<clipPath id="clip0">
<rect width="60" height="60" fill="white" transform="matrix(-1 0 0 1 60.7759 0)"/>
</clipPath>
</defs>
</svg>
