<svg width="51" height="52" viewBox="0 0 51 52" fill="none" xmlns="http://www.w3.org/2000/svg">
<path d="M31.875 19.9233H19.125V32.6733H31.875V19.9233ZM27.625 28.4233H23.375V24.1733H27.625V28.4233ZM44.625 24.1733V19.9233H40.375V15.6733C40.375 13.3358 38.4625 11.4233 36.125 11.4233H31.875V7.17334H27.625V11.4233H23.375V7.17334H19.125V11.4233H14.875C12.5375 11.4233 10.625 13.3358 10.625 15.6733V19.9233H6.375V24.1733H10.625V28.4233H6.375V32.6733H10.625V36.9233C10.625 39.2608 12.5375 41.1733 14.875 41.1733H19.125V45.4233H23.375V41.1733H27.625V45.4233H31.875V41.1733H36.125C38.4625 41.1733 40.375 39.2608 40.375 36.9233V32.6733H44.625V28.4233H40.375V24.1733H44.625ZM36.125 36.9233H14.875V15.6733H36.125V36.9233Z" fill="#0E1330"/>
</svg>
