<svg width="97" height="97" viewBox="0 0 97 97" fill="none" xmlns="http://www.w3.org/2000/svg">
<path d="M48.0054 0.635742C21.6411 0.635742 0.00537109 22.2715 0.00537109 48.6357C0.00537109 71.1335 15.792 91.5703 36.7554 96.6357V80.7554C34.6782 81.2102 32.7666 81.2234 30.6521 80.6001C27.8154 79.7629 25.5105 77.8733 23.7996 74.9919C22.709 73.1521 20.7761 71.157 18.7598 71.3035L18.2654 65.7004C22.6255 65.3269 26.3975 68.3569 28.6365 72.1187C29.6311 73.7915 30.7759 74.7722 32.2451 75.2058C33.6653 75.624 35.1902 75.4233 36.967 74.7957C37.4131 71.2383 39.0427 69.9067 40.2739 68.0317V68.0288C27.7715 66.1641 22.7888 59.5312 20.8113 54.2959C18.1907 47.3445 19.5969 38.6602 24.231 33.1721C24.321 33.0652 24.4836 32.7854 24.4207 32.5898C22.2959 26.1716 24.885 20.8623 24.9802 20.2991C27.4324 21.0242 27.8308 19.5696 35.6318 24.3091L36.9802 25.1191C37.5442 25.4553 37.3669 25.2634 37.9309 25.2209C41.188 24.3362 44.6216 23.8477 48.0046 23.8037C51.4133 23.8477 54.825 24.3362 58.2168 25.2568L58.6533 25.3008C58.6152 25.2949 58.772 25.2729 59.0349 25.1162C68.7798 19.2136 68.4297 21.1428 71.043 20.2932C71.1375 20.8572 73.6921 26.2529 71.5901 32.5898C71.3066 33.4629 80.0386 41.4587 75.1987 54.2937C73.2212 59.5312 68.2393 66.1641 55.7368 68.0288V68.0317C57.3394 70.4744 59.2649 71.7737 59.2546 76.8127V96.6357C80.2188 91.5703 96.0046 71.1335 96.0046 48.6357C96.0054 22.2715 74.3696 0.635742 48.0054 0.635742V0.635742Z" fill="white"/>
</svg>
