<svg width="94" height="139" viewBox="0 0 94 139" fill="none" xmlns="http://www.w3.org/2000/svg">
<path d="M44.0287 43.5177L2.25131 25.6641C1.6528 25.4082 0.990723 25.8543 0.990723 26.5136V74.2438C0.990723 75.4498 1.7142 76.5346 2.81766 76.9824L43.339 93.4335C43.9355 93.6757 44.5845 93.2297 44.5845 92.5777V44.3672C44.5845 43.9963 44.3654 43.6617 44.0287 43.5177Z" fill="white"/>
<path d="M47.8432 38.445L88.2246 21.1879C88.9505 20.8778 88.9699 19.841 88.2562 19.5031L48.7198 0.776676C47.9407 0.407775 47.0409 0.407775 46.2618 0.776676L6.72535 19.5031C6.01169 19.841 6.03112 20.8778 6.75696 21.1879L47.1384 38.445C47.3636 38.5414 47.6179 38.5414 47.8432 38.445Z" fill="white"/>
<path d="M50.397 44.3672V92.5777C50.397 93.2297 51.046 93.6757 51.6425 93.4335L92.1638 76.9824C93.2671 76.5344 93.9907 75.4498 93.9907 74.2438V26.5136C93.9907 25.8543 93.3286 25.4082 92.7301 25.6641L50.9528 43.5177C50.616 43.6617 50.397 43.9963 50.397 44.3672Z" fill="white"/>
<path d="M37.015 133C36.675 133 36.43 132.82 36.28 132.46L28.495 114.79C28.365 114.5 28.365 114.26 28.495 114.07C28.635 113.88 28.825 113.76 29.065 113.71C29.475 113.61 29.76 113.76 29.92 114.16L37.42 131.17H36.865L44.32 114.16C44.48 113.76 44.77 113.61 45.19 113.71C45.45 113.76 45.64 113.88 45.76 114.07C45.88 114.26 45.88 114.5 45.76 114.79L37.945 132.46C37.795 132.82 37.54 133 37.18 133H37.015ZM49.852 133C49.322 133 49.057 132.735 49.057 132.205V114.46C49.057 113.93 49.322 113.665 49.852 113.665C50.232 113.665 50.532 113.84 50.752 114.19L58.222 125.605L57.862 125.65L65.332 114.19C65.542 113.84 65.857 113.665 66.277 113.665C66.747 113.665 66.982 113.93 66.982 114.46V132.205C66.982 132.735 66.722 133 66.202 133C65.672 133 65.407 132.735 65.407 132.205V116.035L65.872 116.185L58.942 126.745C58.722 127.085 58.407 127.255 57.997 127.255C57.637 127.255 57.347 127.085 57.127 126.745L50.197 116.185L50.632 116.35V132.205C50.632 132.735 50.372 133 49.852 133Z" fill="white"/>
</svg>
