<?xml version="1.0" encoding="UTF-8"?> <svg xmlns="http://www.w3.org/2000/svg" width="52mm" height="20mm" viewBox="0 0 147.4 56.69"><title>Fichier 2</title><g id="f3e503d6-364c-460a-be8b-d842adb05878" data-name="Calque 2"><g id="f9dff1f2-be97-4dd3-8710-aed5b910a8cf" data-name="Calque 4"><g><g><g><g><path d="M53.89,14H55.4v3.43h3.91V14h1.51v8.64H59.31v-3.9H55.4v3.9H53.89Z" style="fill: #28275b"></path><path d="M67.35,21.28a.71.71,0,0,0,.07.37.28.28,0,0,0,.26.11h.14l.19,0v1l-.18,0-.24.06-.24,0h-.2a1.32,1.32,0,0,1-.7-.16.88.88,0,0,1-.37-.6,2.32,2.32,0,0,1-1,.58,4,4,0,0,1-1.15.18,2.73,2.73,0,0,1-.81-.11,2.17,2.17,0,0,1-.68-.34,1.64,1.64,0,0,1-.47-.57,1.71,1.71,0,0,1-.18-.8,1.91,1.91,0,0,1,.22-.95,1.48,1.48,0,0,1,.55-.56,2.47,2.47,0,0,1,.77-.3,8.55,8.55,0,0,1,.86-.14,6.71,6.71,0,0,1,.71-.1,3.07,3.07,0,0,0,.6-.11.85.85,0,0,0,.41-.22.61.61,0,0,0,.15-.45.68.68,0,0,0-.13-.44.79.79,0,0,0-.31-.26,1.31,1.31,0,0,0-.41-.12l-.44,0a1.74,1.74,0,0,0-.95.24.93.93,0,0,0-.42.75H62a2.11,2.11,0,0,1,.29-1,2,2,0,0,1,.65-.64,2.52,2.52,0,0,1,.88-.34,4.9,4.9,0,0,1,1-.1,3.94,3.94,0,0,1,.9.1,2.57,2.57,0,0,1,.8.31,1.73,1.73,0,0,1,.57.57,1.5,1.5,0,0,1,.22.84ZM66,19.54a1.67,1.67,0,0,1-.77.25,9.26,9.26,0,0,0-.92.13,2.58,2.58,0,0,0-.42.1,1,1,0,0,0-.36.18.81.81,0,0,0-.25.3,1.08,1.08,0,0,0-.09.46.55.55,0,0,0,.13.38,1,1,0,0,0,.32.25,1.4,1.4,0,0,0,.41.13,3.18,3.18,0,0,0,.4,0,2.27,2.27,0,0,0,.5-.06,1.67,1.67,0,0,0,.5-.21,1.38,1.38,0,0,0,.39-.37,1,1,0,0,0,.16-.55Z" style="fill: #28275b"></path><path d="M68.53,16.42h1.3v.92l0,0a2.35,2.35,0,0,1,.82-.81,2.13,2.13,0,0,1,1.12-.3,2.33,2.33,0,0,1,1.61.53,2,2,0,0,1,.59,1.6v4.3H72.63V18.74a1.77,1.77,0,0,0-.31-1.07,1.16,1.16,0,0,0-.91-.33,1.38,1.38,0,0,0-.62.13,1.19,1.19,0,0,0-.47.35,1.79,1.79,0,0,0-.31.52,2,2,0,0,0-.1.65v3.69H68.53Z" style="fill: #28275b"></path><path d="M81,22.68H79.71v-.85h0a1.62,1.62,0,0,1-.81.78,2.64,2.64,0,0,1-1.12.23,2.84,2.84,0,0,1-1.28-.26,2.44,2.44,0,0,1-.91-.7A3,3,0,0,1,75,20.82a4.66,4.66,0,0,1-.18-1.31A4.29,4.29,0,0,1,75.07,18a3,3,0,0,1,.61-1,2.49,2.49,0,0,1,.87-.59,2.68,2.68,0,0,1,1-.19,3.13,3.13,0,0,1,.6.06,2.21,2.21,0,0,1,.57.17,2.47,2.47,0,0,1,.52.31,2.05,2.05,0,0,1,.39.44h0V14H81Zm-4.8-3.07a3,3,0,0,0,.1.79,2,2,0,0,0,.32.69,1.62,1.62,0,0,0,.53.48,1.49,1.49,0,0,0,.77.19,1.52,1.52,0,0,0,.79-.2,1.65,1.65,0,0,0,.54-.51,2.35,2.35,0,0,0,.32-.7,3.15,3.15,0,0,0,.1-.81,2.54,2.54,0,0,0-.46-1.62A1.52,1.52,0,0,0,78,17.34a1.61,1.61,0,0,0-.82.2,1.68,1.68,0,0,0-.54.52,2.16,2.16,0,0,0-.3.73A3.75,3.75,0,0,0,76.22,19.61Z" style="fill: #28275b"></path><path d="M82.25,14h1.37v1.3H82.25Zm0,2.38h1.37v6.26H82.25Z" style="fill: #28275b"></path><path d="M89,18.51a1.27,1.27,0,0,0-.47-.87,1.48,1.48,0,0,0-1-.3,2,2,0,0,0-.57.09,1.43,1.43,0,0,0-.56.34,2.26,2.26,0,0,0-.42.69,3.32,3.32,0,0,0-.17,1.15,3.46,3.46,0,0,0,.09.78,2.39,2.39,0,0,0,.29.69,1.74,1.74,0,0,0,.52.49,1.5,1.5,0,0,0,.76.19,1.37,1.37,0,0,0,1-.38A1.78,1.78,0,0,0,89,20.33h1.37a3,3,0,0,1-.92,1.87,2.81,2.81,0,0,1-1.93.64,3.28,3.28,0,0,1-1.3-.24,2.85,2.85,0,0,1-.95-.68,3,3,0,0,1-.58-1,4.15,4.15,0,0,1-.2-1.29,4.66,4.66,0,0,1,.19-1.31,3,3,0,0,1,.58-1.07,2.76,2.76,0,0,1,1-.72,3.27,3.27,0,0,1,1.34-.26,3.77,3.77,0,0,1,1,.14,2.51,2.51,0,0,1,.87.42,2.09,2.09,0,0,1,.62.7,2.39,2.39,0,0,1,.29,1Z" style="fill: #28275b"></path><path d="M96.43,21.28a.71.71,0,0,0,.07.37.27.27,0,0,0,.25.11h.15l.19,0v1l-.18,0-.24.06-.24,0h-.21a1.31,1.31,0,0,1-.69-.16.88.88,0,0,1-.37-.6,2.32,2.32,0,0,1-1,.58,4,4,0,0,1-1.15.18,2.73,2.73,0,0,1-.81-.11,2.17,2.17,0,0,1-.68-.34,1.53,1.53,0,0,1-.47-.57,1.71,1.71,0,0,1-.18-.8,1.91,1.91,0,0,1,.21-.95,1.58,1.58,0,0,1,.56-.56,2.38,2.38,0,0,1,.77-.3,8.55,8.55,0,0,1,.86-.14A6.71,6.71,0,0,1,94,19a3.07,3.07,0,0,0,.6-.11.85.85,0,0,0,.41-.22.61.61,0,0,0,.15-.45.68.68,0,0,0-.13-.44.79.79,0,0,0-.31-.26,1.29,1.29,0,0,0-.42-.12l-.43,0a1.72,1.72,0,0,0-.95.24.93.93,0,0,0-.42.75H91.1a2.11,2.11,0,0,1,.29-1,2,2,0,0,1,.65-.64,2.52,2.52,0,0,1,.88-.34,4.87,4.87,0,0,1,1-.1,4,4,0,0,1,.91.1,2.57,2.57,0,0,1,.8.31,1.73,1.73,0,0,1,.57.57,1.5,1.5,0,0,1,.22.84Zm-1.37-1.74a1.67,1.67,0,0,1-.78.25c-.3,0-.61.07-.91.13A2.58,2.58,0,0,0,93,20a1.16,1.16,0,0,0-.37.18.89.89,0,0,0-.24.3,1.08,1.08,0,0,0-.09.46.55.55,0,0,0,.13.38,1,1,0,0,0,.32.25,1.31,1.31,0,0,0,.41.13,3.18,3.18,0,0,0,.4,0,2.27,2.27,0,0,0,.5-.06,1.67,1.67,0,0,0,.5-.21,1.52,1.52,0,0,0,.39-.37,1,1,0,0,0,.16-.55Z" style="fill: #28275b"></path><path d="M97.65,16.42H99v.85h0a1.7,1.7,0,0,1,.81-.78,2.62,2.62,0,0,1,1.12-.24,3,3,0,0,1,1.28.26,2.49,2.49,0,0,1,.91.72,3.28,3.28,0,0,1,.55,1.05,4.59,4.59,0,0,1,.18,1.3,4.49,4.49,0,0,1-.17,1.22,3.27,3.27,0,0,1-.49,1.05,2.44,2.44,0,0,1-.84.72,2.49,2.49,0,0,1-1.19.27,3,3,0,0,1-.6-.05,2.3,2.3,0,0,1-.58-.18,2.14,2.14,0,0,1-.51-.3,1.9,1.9,0,0,1-.4-.45h0V25H97.65Zm4.79,3.13a2.85,2.85,0,0,0-.11-.82A2.41,2.41,0,0,0,102,18a1.8,1.8,0,0,0-.54-.49,1.44,1.44,0,0,0-.75-.19,1.51,1.51,0,0,0-1.31.61,2.68,2.68,0,0,0-.44,1.6,3.07,3.07,0,0,0,.12.88,2,2,0,0,0,.34.7,1.76,1.76,0,0,0,.55.46,1.58,1.58,0,0,0,.74.17,1.49,1.49,0,0,0,.79-.2,1.62,1.62,0,0,0,.54-.5,2,2,0,0,0,.3-.7A3.59,3.59,0,0,0,102.44,19.55Z" style="fill: #28275b"></path></g><g><path d="M58.63,33a3.07,3.07,0,0,1-1.06.87,3.46,3.46,0,0,1-2.44.09,2.53,2.53,0,0,1-.86-.5,2.27,2.27,0,0,1-.56-.8,2.86,2.86,0,0,1-.2-1.09,2.05,2.05,0,0,1,.17-.83,2.79,2.79,0,0,1,.44-.69,4.3,4.3,0,0,1,.64-.55,6.65,6.65,0,0,1,.73-.43l-.33-.43a4.08,4.08,0,0,1-.28-.44,2.92,2.92,0,0,1-.19-.49,1.83,1.83,0,0,1-.07-.53,2.11,2.11,0,0,1,.16-.85,2,2,0,0,1,.45-.64,2.16,2.16,0,0,1,.68-.42,2.21,2.21,0,0,1,.82-.14,2.72,2.72,0,0,1,.8.12,2.13,2.13,0,0,1,.69.39,2,2,0,0,1,.47.65,2.29,2.29,0,0,1,.06,1.62,2.73,2.73,0,0,1-.34.6,2.91,2.91,0,0,1-.5.49,4,4,0,0,1-.59.38L58.66,31c0-.13.09-.29.14-.47a4.19,4.19,0,0,0,.12-.69h1.21A6.19,6.19,0,0,1,59.9,31a4.31,4.31,0,0,1-.45,1l1.65,2H59.41Zm-2.42-3-.42.24a1.84,1.84,0,0,0-.43.3A1.67,1.67,0,0,0,55,31a1.35,1.35,0,0,0-.14.64,1.39,1.39,0,0,0,.4,1.07,1.37,1.37,0,0,0,1,.38,2,2,0,0,0,.64-.1,2.12,2.12,0,0,0,.45-.25,1.56,1.56,0,0,0,.31-.32l.23-.3Zm.55-3.83a.92.92,0,0,0-.65.26,1,1,0,0,0-.26.7.9.9,0,0,0,.08.4,1.85,1.85,0,0,0,.19.37c.08.11.16.23.25.34l.26.33.37-.27a3.26,3.26,0,0,0,.33-.31,1.16,1.16,0,0,0,.23-.37,1.09,1.09,0,0,0,.08-.45,1.05,1.05,0,0,0-.24-.71A.79.79,0,0,0,56.76,26.18Z" style="fill: #28275b"></path><path d="M64.56,25.36h1.51V28.8H70V25.36h1.51V34H70V30.1H66.07V34H64.56Z" style="fill: #28275b"></path><path d="M74.15,31.23a2.38,2.38,0,0,0,.11.7,1.65,1.65,0,0,0,.3.59,1.5,1.5,0,0,0,.52.41,1.73,1.73,0,0,0,.75.15,1.68,1.68,0,0,0,1-.26,1.58,1.58,0,0,0,.55-.78h1.3a2.61,2.61,0,0,1-1.85,2,3.45,3.45,0,0,1-1,.14,3.31,3.31,0,0,1-1.3-.24,2.79,2.79,0,0,1-1-.68,2.88,2.88,0,0,1-.59-1,4.36,4.36,0,0,1-.2-1.33A3.8,3.8,0,0,1,73,29.61a3.2,3.2,0,0,1,.6-1.05,3,3,0,0,1,1-.72,3,3,0,0,1,2.57,0,2.87,2.87,0,0,1,1,.82,3.18,3.18,0,0,1,.56,1.17,3.44,3.44,0,0,1,.09,1.36Zm3.21-.91a2.22,2.22,0,0,0-.14-.63,1.85,1.85,0,0,0-.31-.53,2,2,0,0,0-.48-.36,1.47,1.47,0,0,0-.64-.14,1.67,1.67,0,0,0-.65.13,1.41,1.41,0,0,0-.51.35,1.93,1.93,0,0,0-.34.53,2,2,0,0,0-.14.65Zm-1-5.18H78l-1.71,1.73h-1Z" style="fill: #28275b"></path><path d="M79.79,25.36h1.38v3.19h0a2,2,0,0,1,.35-.41,2.77,2.77,0,0,1,.45-.31,3.24,3.24,0,0,1,.52-.19,2.5,2.5,0,0,1,.54-.07,3,3,0,0,1,1.28.26,2.6,2.6,0,0,1,.91.72,3,3,0,0,1,.54,1.06,4.72,4.72,0,0,1,0,2.51,3.18,3.18,0,0,1-.49,1.05,2.58,2.58,0,0,1-.84.73,2.52,2.52,0,0,1-1.19.27,4.72,4.72,0,0,1-.64-.05A2,2,0,0,1,82,34a2,2,0,0,1-.53-.31,1.44,1.44,0,0,1-.39-.51h0V34h-1.3Zm4.8,5.52a3.26,3.26,0,0,0-.11-.83,2.24,2.24,0,0,0-.32-.7,1.75,1.75,0,0,0-.55-.5,1.48,1.48,0,0,0-.74-.19,1.5,1.5,0,0,0-1.31.61,2.69,2.69,0,0,0-.44,1.61,3.45,3.45,0,0,0,.11.87,1.92,1.92,0,0,0,.35.7,1.7,1.7,0,0,0,.54.46,1.63,1.63,0,0,0,.75.17,1.49,1.49,0,0,0,.79-.2,1.52,1.52,0,0,0,.54-.5,2,2,0,0,0,.3-.7A3.57,3.57,0,0,0,84.59,30.88Z" style="fill: #28275b"></path><path d="M88.17,31.23a2.37,2.37,0,0,0,.1.7,1.66,1.66,0,0,0,.31.59,1.5,1.5,0,0,0,.52.41,1.72,1.72,0,0,0,.74.15,1.7,1.7,0,0,0,1-.26,1.57,1.57,0,0,0,.54-.78h1.3a2.53,2.53,0,0,1-.37.91,2.72,2.72,0,0,1-.64.67,2.8,2.8,0,0,1-.83.41,3.52,3.52,0,0,1-1,.14,3.31,3.31,0,0,1-1.3-.24,3,3,0,0,1-1-.68,2.86,2.86,0,0,1-.58-1,4.08,4.08,0,0,1-.2-1.33A3.8,3.8,0,0,1,87,29.61a3.2,3.2,0,0,1,.6-1.05,3,3,0,0,1,1-.72,2.77,2.77,0,0,1,1.25-.27,2.86,2.86,0,0,1,1.32.31,3,3,0,0,1,1,.82,3.34,3.34,0,0,1,.56,1.17,3.44,3.44,0,0,1,.09,1.36Zm3.2-.91a2.21,2.21,0,0,0-.13-.63,1.67,1.67,0,0,0-.32-.53,1.78,1.78,0,0,0-.48-.36,1.46,1.46,0,0,0-.63-.14,1.76,1.76,0,0,0-.66.13,1.46,1.46,0,0,0-.5.35,1.55,1.55,0,0,0-.34.53,1.76,1.76,0,0,0-.14.65Z" style="fill: #28275b"></path><path d="M93.77,27.74h1.29V29h0a1.46,1.46,0,0,1,.23-.49,2.49,2.49,0,0,1,.42-.44,2,2,0,0,1,.55-.32,1.5,1.5,0,0,1,.62-.13l.33,0,.19,0v1.33l-.3,0-.3,0a1.58,1.58,0,0,0-.65.14,1.44,1.44,0,0,0-.54.41,2.14,2.14,0,0,0-.36.67,2.92,2.92,0,0,0-.13.92v3H93.77Z" style="fill: #28275b"></path><path d="M103.75,33.67a2.65,2.65,0,0,1-.79,2.11,3.28,3.28,0,0,1-2.27.7,4.29,4.29,0,0,1-.94-.1,2.54,2.54,0,0,1-.87-.33,2.1,2.1,0,0,1-.66-.6,1.8,1.8,0,0,1-.31-.92h1.37a1.07,1.07,0,0,0,.21.47,1.05,1.05,0,0,0,.34.29,1.5,1.5,0,0,0,.44.13,4.12,4.12,0,0,0,.51,0A1.59,1.59,0,0,0,102,35a1.67,1.67,0,0,0,.39-1.19v-1h0a2.13,2.13,0,0,1-1.86,1.1,2.92,2.92,0,0,1-1.28-.26,2.49,2.49,0,0,1-.86-.72,2.87,2.87,0,0,1-.5-1,4.75,4.75,0,0,1-.16-1.27,3.68,3.68,0,0,1,.19-1.2,3.15,3.15,0,0,1,.56-1,2.65,2.65,0,0,1,2.07-.94,2.42,2.42,0,0,1,1.08.25,1.69,1.69,0,0,1,.76.78h0v-.86h1.37Zm-3-.76a1.46,1.46,0,0,0,.78-.19,1.53,1.53,0,0,0,.52-.49,2.26,2.26,0,0,0,.29-.71,3.48,3.48,0,0,0,.09-.79,2.86,2.86,0,0,0-.1-.77,2.13,2.13,0,0,0-.29-.67,1.48,1.48,0,0,0-1.29-.63,1.45,1.45,0,0,0-.77.2,1.41,1.41,0,0,0-.5.5,2.19,2.19,0,0,0-.28.7,3.46,3.46,0,0,0-.09.78,3.23,3.23,0,0,0,.1.76,2,2,0,0,0,.3.66,1.6,1.6,0,0,0,.5.47A1.45,1.45,0,0,0,100.7,32.91Z" style="fill: #28275b"></path><path d="M106.19,31.23a2.37,2.37,0,0,0,.1.7,1.66,1.66,0,0,0,.31.59,1.47,1.47,0,0,0,.51.41,1.73,1.73,0,0,0,.75.15,1.66,1.66,0,0,0,1-.26,1.52,1.52,0,0,0,.55-.78h1.3a2.61,2.61,0,0,1-1.85,2,3.45,3.45,0,0,1-1,.14,3.31,3.31,0,0,1-1.3-.24,2.79,2.79,0,0,1-1-.68,2.88,2.88,0,0,1-.59-1,4.36,4.36,0,0,1-.2-1.33,3.8,3.8,0,0,1,.21-1.27,3.05,3.05,0,0,1,.61-1.05,2.91,2.91,0,0,1,.94-.72,2.84,2.84,0,0,1,1.26-.27,2.81,2.81,0,0,1,1.31.31,3,3,0,0,1,1,.82,3.52,3.52,0,0,1,.56,1.17,3.86,3.86,0,0,1,.09,1.36Zm3.2-.91a1.92,1.92,0,0,0-.14-.63,1.65,1.65,0,0,0-.31-.53,1.78,1.78,0,0,0-.48-.36,1.46,1.46,0,0,0-.63-.14,1.73,1.73,0,0,0-.66.13,1.41,1.41,0,0,0-.51.35,1.69,1.69,0,0,0-.33.53,1.58,1.58,0,0,0-.14.65Z" style="fill: #28275b"></path><path d="M111.79,27.74h1.3v.87h0a2.72,2.72,0,0,1,.34-.42,1.8,1.8,0,0,1,.4-.33,3,3,0,0,1,.51-.21,2.59,2.59,0,0,1,.66-.08,2.28,2.28,0,0,1,1.06.26,1.43,1.43,0,0,1,.69.78,2.78,2.78,0,0,1,.81-.76,2.21,2.21,0,0,1,1.14-.28,2.28,2.28,0,0,1,1.54.49,2,2,0,0,1,.55,1.62V34h-1.37V30.34c0-.25,0-.47,0-.68a1.43,1.43,0,0,0-.14-.53.77.77,0,0,0-.34-.35,1.36,1.36,0,0,0-.63-.12,1.17,1.17,0,0,0-1,.44,2.07,2.07,0,0,0-.31,1.23V34h-1.38V30a1.75,1.75,0,0,0-.23-1,1,1,0,0,0-.86-.34,1.35,1.35,0,0,0-.52.11,1.31,1.31,0,0,0-.43.32,1.62,1.62,0,0,0-.3.5,1.92,1.92,0,0,0-.12.69V34h-1.37Z" style="fill: #28275b"></path><path d="M123.32,31.23a2.38,2.38,0,0,0,.11.7,1.65,1.65,0,0,0,.3.59,1.5,1.5,0,0,0,.52.41,1.73,1.73,0,0,0,.75.15,1.68,1.68,0,0,0,1-.26,1.58,1.58,0,0,0,.55-.78h1.3A2.61,2.61,0,0,1,126,34a3.45,3.45,0,0,1-1,.14,3.31,3.31,0,0,1-1.3-.24,2.79,2.79,0,0,1-1-.68,2.88,2.88,0,0,1-.59-1,4.36,4.36,0,0,1-.2-1.33,3.8,3.8,0,0,1,.21-1.27,3.2,3.2,0,0,1,.6-1.05,3,3,0,0,1,.95-.72,3,3,0,0,1,2.57,0,2.87,2.87,0,0,1,1,.82,3.18,3.18,0,0,1,.56,1.17,3.44,3.44,0,0,1,.09,1.36Zm3.21-.91a2.22,2.22,0,0,0-.14-.63,1.85,1.85,0,0,0-.31-.53,2,2,0,0,0-.48-.36,1.47,1.47,0,0,0-.64-.14,1.67,1.67,0,0,0-.65.13,1.41,1.41,0,0,0-.51.35,1.93,1.93,0,0,0-.34.53,2,2,0,0,0-.14.65Z" style="fill: #28275b"></path><path d="M128.93,27.74h1.3v.92l0,0a2.38,2.38,0,0,1,.82-.82,2.16,2.16,0,0,1,1.12-.3,2.31,2.31,0,0,1,1.62.54,2,2,0,0,1,.59,1.59V34H133V30.07a1.66,1.66,0,0,0-.31-1.07,1.1,1.1,0,0,0-.9-.34,1.57,1.57,0,0,0-.63.13,1.35,1.35,0,0,0-.47.35,1.62,1.62,0,0,0-.3.53,1.91,1.91,0,0,0-.11.64V34h-1.37Z" style="fill: #28275b"></path><path d="M135.19,27.74h1V25.87h1.37v1.87h1.25v1H137.6v3.34c0,.15,0,.27,0,.38a.54.54,0,0,0,.09.26.36.36,0,0,0,.2.16.84.84,0,0,0,.36.06h.29a1,1,0,0,0,.29,0V34l-.45,0a3.29,3.29,0,0,1-.45,0,3.35,3.35,0,0,1-.87-.1,1.17,1.17,0,0,1-.52-.31,1,1,0,0,1-.25-.5,3.44,3.44,0,0,1-.08-.69V28.77h-1Z" style="fill: #28275b"></path></g></g><g><path d="M55,39.35l1.89,5,1.89-5h1.09v6h-.75v-5h0l-1.87,5h-.68l-1.86-5h0v5h-.76v-6Z" style="fill: #28275b"></path><path d="M65,45.31a1,1,0,0,1-.51.11.58.58,0,0,1-.44-.16.66.66,0,0,1-.17-.5,1.65,1.65,0,0,1-.68.5,2.13,2.13,0,0,1-.84.16,2.1,2.1,0,0,1-.56-.07,1.17,1.17,0,0,1-.45-.21,1,1,0,0,1-.31-.37,1.52,1.52,0,0,1,0-1.16,1.23,1.23,0,0,1,.33-.38,1.56,1.56,0,0,1,.47-.22,5.29,5.29,0,0,1,.54-.13l.56-.09a4.56,4.56,0,0,0,.47-.08.75.75,0,0,0,.31-.16.39.39,0,0,0,.12-.31.68.68,0,0,0-.09-.37.52.52,0,0,0-.22-.22,1,1,0,0,0-.31-.1l-.34,0a1.5,1.5,0,0,0-.76.18.7.7,0,0,0-.32.64h-.71a1.5,1.5,0,0,1,.16-.67,1.28,1.28,0,0,1,.41-.45,1.55,1.55,0,0,1,.57-.25,3.11,3.11,0,0,1,.69-.07,3.69,3.69,0,0,1,.58,0,1.5,1.5,0,0,1,.53.17,1.06,1.06,0,0,1,.37.36,1.13,1.13,0,0,1,.14.61v2.23a1.6,1.6,0,0,0,0,.36c0,.08.09.12.2.12a.64.64,0,0,0,.22,0Zm-1.16-2.23a.81.81,0,0,1-.35.15L63,43.3l-.49.07a2.43,2.43,0,0,0-.43.12.87.87,0,0,0-.32.24.66.66,0,0,0-.12.42.66.66,0,0,0,.07.3.61.61,0,0,0,.19.2.89.89,0,0,0,.26.11,1.66,1.66,0,0,0,.32,0,1.54,1.54,0,0,0,.6-.1,1.09,1.09,0,0,0,.41-.24.9.9,0,0,0,.24-.32.77.77,0,0,0,.07-.32Z" style="fill: #28275b"></path><path d="M65.8,40.22v-.87h.71v.87Zm.71.78v4.33H65.8V41Z" style="fill: #28275b"></path><path d="M68.27,44.36a.84.84,0,0,0,.27.26,1.29,1.29,0,0,0,.36.14,3,3,0,0,0,.43,0l.35,0a1,1,0,0,0,.34-.09.55.55,0,0,0,.25-.2.48.48,0,0,0,.1-.33.46.46,0,0,0-.21-.41,1.57,1.57,0,0,0-.52-.24c-.21,0-.43-.11-.68-.15a3.38,3.38,0,0,1-.68-.21,1.32,1.32,0,0,1-.53-.36.94.94,0,0,1-.21-.65,1,1,0,0,1,.15-.56,1.18,1.18,0,0,1,.38-.39,1.62,1.62,0,0,1,.52-.21,2.22,2.22,0,0,1,.57-.07,3.58,3.58,0,0,1,.68.06,1.48,1.48,0,0,1,.55.22,1.11,1.11,0,0,1,.38.42,1.67,1.67,0,0,1,.17.65h-.72a.68.68,0,0,0-.1-.34.87.87,0,0,0-.24-.23,1.43,1.43,0,0,0-.31-.12,2.09,2.09,0,0,0-.35,0,1.73,1.73,0,0,0-.32,0,1.32,1.32,0,0,0-.3.09.6.6,0,0,0-.22.16.47.47,0,0,0-.08.28.38.38,0,0,0,.13.3.88.88,0,0,0,.33.2,2.39,2.39,0,0,0,.45.14l.5.11.53.14a1.88,1.88,0,0,1,.45.22,1.19,1.19,0,0,1,.32.35,1.05,1.05,0,0,1,.12.52,1.18,1.18,0,0,1-.17.65,1.13,1.13,0,0,1-.42.42,2,2,0,0,1-.6.23,3.66,3.66,0,0,1-.65.06,3,3,0,0,1-.69-.08A1.77,1.77,0,0,1,68,45.1a1.27,1.27,0,0,1-.4-.46,1.51,1.51,0,0,1-.17-.68h.71A.94.94,0,0,0,68.27,44.36Z" style="fill: #28275b"></path><path d="M71.92,42.27a2.14,2.14,0,0,1,.41-.72,1.82,1.82,0,0,1,.66-.48,2.49,2.49,0,0,1,1.81,0,2,2,0,0,1,.66.48,2.12,2.12,0,0,1,.4.72,2.9,2.9,0,0,1,.13.89,2.82,2.82,0,0,1-.13.89,2,2,0,0,1-.4.72,2,2,0,0,1-.66.48,2.49,2.49,0,0,1-1.81,0,1.82,1.82,0,0,1-.66-.48,2,2,0,0,1-.41-.72,2.82,2.82,0,0,1-.13-.89A2.9,2.9,0,0,1,71.92,42.27Zm.73,1.59a1.38,1.38,0,0,0,.29.52,1.28,1.28,0,0,0,1,.42,1.36,1.36,0,0,0,.53-.11,1.43,1.43,0,0,0,.43-.31,1.53,1.53,0,0,0,.29-.52,2.11,2.11,0,0,0,.1-.7,2.09,2.09,0,0,0-.1-.69,1.53,1.53,0,0,0-.29-.52,1.31,1.31,0,0,0-.43-.32,1.36,1.36,0,0,0-.53-.11,1.31,1.31,0,0,0-.52.11,1.21,1.21,0,0,0-.43.32,1.38,1.38,0,0,0-.29.52,2.25,2.25,0,0,0,0,1.39Z" style="fill: #28275b"></path><path d="M77.61,41v.68h0A1.49,1.49,0,0,1,79,40.9a1.91,1.91,0,0,1,.72.11,1.21,1.21,0,0,1,.46.33,1.23,1.23,0,0,1,.24.5,2.51,2.51,0,0,1,.07.64v2.85h-.71V42.39a.81.81,0,0,0-.88-.87,1.56,1.56,0,0,0-.56.1,1.18,1.18,0,0,0-.4.29,1.29,1.29,0,0,0-.24.43,1.85,1.85,0,0,0-.08.54v2.45h-.71V41Z" style="fill: #28275b"></path><path d="M85.05,39.35v5.31h3.17v.67h-4v-6Z" style="fill: #28275b"></path><path d="M92,45.05a1.93,1.93,0,0,1-1.22.37,2.22,2.22,0,0,1-.9-.17,1.78,1.78,0,0,1-.64-.47,2.08,2.08,0,0,1-.39-.72,3.27,3.27,0,0,1-.15-.91,2.67,2.67,0,0,1,.15-.91,2,2,0,0,1,.43-.71,1.87,1.87,0,0,1,.64-.47,2,2,0,0,1,.82-.16,1.89,1.89,0,0,1,1,.23,2.09,2.09,0,0,1,.61.61,2.59,2.59,0,0,1,.32.81,4,4,0,0,1,.07.82H89.43a1.6,1.6,0,0,0,.06.54,1.15,1.15,0,0,0,.25.46,1.21,1.21,0,0,0,.42.31,1.49,1.49,0,0,0,.62.12,1.24,1.24,0,0,0,.74-.21A1,1,0,0,0,91.9,44h.7A1.69,1.69,0,0,1,92,45.05Zm-.17-2.78a1.16,1.16,0,0,0-.26-.39,1.22,1.22,0,0,0-.38-.26,1.28,1.28,0,0,0-1,0,1,1,0,0,0-.38.26,1.36,1.36,0,0,0-.25.39,1.3,1.3,0,0,0-.11.48h2.48A1.3,1.3,0,0,0,91.8,42.27Z" style="fill: #28275b"></path><path d="M94.06,44.36a.72.72,0,0,0,.26.26,1.35,1.35,0,0,0,.37.14,3,3,0,0,0,.42,0l.35,0a.9.9,0,0,0,.34-.09.57.57,0,0,0,.26-.2.54.54,0,0,0,.1-.33.46.46,0,0,0-.21-.41,1.67,1.67,0,0,0-.52-.24c-.21,0-.44-.11-.69-.15a3.59,3.59,0,0,1-.68-.21,1.28,1.28,0,0,1-.52-.36.94.94,0,0,1-.21-.65,1.08,1.08,0,0,1,.14-.56,1.29,1.29,0,0,1,.38-.39,1.83,1.83,0,0,1,.52-.21A2.3,2.3,0,0,1,95,40.9a3.48,3.48,0,0,1,.67.06,1.41,1.41,0,0,1,.55.22,1,1,0,0,1,.38.42,1.51,1.51,0,0,1,.17.65H96a.68.68,0,0,0-.11-.34.72.72,0,0,0-.23-.23,1.75,1.75,0,0,0-.32-.12,2,2,0,0,0-.35,0l-.32,0a1.32,1.32,0,0,0-.3.09.49.49,0,0,0-.21.16.41.41,0,0,0-.09.28.38.38,0,0,0,.13.3,1.08,1.08,0,0,0,.33.2,2.77,2.77,0,0,0,.46.14l.5.11L96,43a1.88,1.88,0,0,1,.45.22,1.06,1.06,0,0,1,.32.35,1.05,1.05,0,0,1,.12.52,1.18,1.18,0,0,1-.16.65,1.15,1.15,0,0,1-.43.42,1.82,1.82,0,0,1-.59.23,3.68,3.68,0,0,1-.66.06,3.1,3.1,0,0,1-.69-.08,1.72,1.72,0,0,1-.57-.24,1.3,1.3,0,0,1-.41-.46,1.52,1.52,0,0,1-.16-.68H94A.72.72,0,0,0,94.06,44.36Z" style="fill: #28275b"></path><path d="M101.47,39.35l1.88,5,1.9-5h1.08v6h-.75v-5h0l-1.86,5H103l-1.87-5h0v5h-.75v-6Z" style="fill: #28275b"></path><path d="M107.69,40.22v-.87h.71v.87Zm.71.78v4.33h-.71V41Z" style="fill: #28275b"></path><path d="M110.26,41v.91h0a1.87,1.87,0,0,1,.64-.78,1.5,1.5,0,0,1,1-.23v.75a2,2,0,0,0-.73.12,1.05,1.05,0,0,0-.48.34,1.24,1.24,0,0,0-.27.55,2.73,2.73,0,0,0-.09.74v1.93h-.71V41Z" style="fill: #28275b"></path><path d="M116.35,45.31a1,1,0,0,1-.51.11.6.6,0,0,1-.44-.16.65.65,0,0,1-.16-.5,1.75,1.75,0,0,1-.69.5,2.1,2.1,0,0,1-.84.16,2,2,0,0,1-.55-.07,1.14,1.14,0,0,1-.46-.21,1,1,0,0,1-.31-.37,1.33,1.33,0,0,1-.11-.56,1.21,1.21,0,0,1,.13-.6,1,1,0,0,1,.33-.38,1.36,1.36,0,0,1,.47-.22,4.27,4.27,0,0,1,.54-.13l.55-.09a4.56,4.56,0,0,0,.47-.08.87.87,0,0,0,.32-.16.39.39,0,0,0,.12-.31.68.68,0,0,0-.09-.37.6.6,0,0,0-.23-.22.94.94,0,0,0-.31-.1,2,2,0,0,0-.34,0,1.44,1.44,0,0,0-.75.18.73.73,0,0,0-.33.64h-.71a1.5,1.5,0,0,1,.17-.67,1.17,1.17,0,0,1,.4-.45,1.63,1.63,0,0,1,.57-.25,3.11,3.11,0,0,1,.69-.07,3.9,3.9,0,0,1,.59,0,1.52,1.52,0,0,1,.52.17,1.19,1.19,0,0,1,.38.36,1.22,1.22,0,0,1,.14.61v2.23a1.6,1.6,0,0,0,0,.36c0,.08.08.12.19.12a.6.6,0,0,0,.22,0Zm-1.15-2.23a.85.85,0,0,1-.36.15l-.45.07-.48.07a2.32,2.32,0,0,0-.44.12.83.83,0,0,0-.31.24.66.66,0,0,0-.12.42.56.56,0,0,0,.07.3.49.49,0,0,0,.18.2,1,1,0,0,0,.26.11,1.66,1.66,0,0,0,.32,0,1.59,1.59,0,0,0,.61-.1,1.27,1.27,0,0,0,.41-.24,1,1,0,0,0,.23-.32.79.79,0,0,0,.08-.32Z" style="fill: #28275b"></path><path d="M117.86,39.35v2.23h0a1.09,1.09,0,0,1,.56-.52,2,2,0,0,1,.83-.16,2,2,0,0,1,.87.18,1.69,1.69,0,0,1,.62.5,2.05,2.05,0,0,1,.37.72,2.82,2.82,0,0,1,.13.87,3,3,0,0,1-.12.87,1.89,1.89,0,0,1-.37.72,1.75,1.75,0,0,1-.62.48,2,2,0,0,1-.87.18,1.56,1.56,0,0,1-.35,0,1.86,1.86,0,0,1-.39-.1,1.53,1.53,0,0,1-.37-.21,1.28,1.28,0,0,1-.29-.32h0v.58h-.71v-6Zm2.56,3.18a1.73,1.73,0,0,0-.25-.51,1.19,1.19,0,0,0-.41-.36,1.33,1.33,0,0,0-.6-.14,1.21,1.21,0,0,0-.62.15,1.32,1.32,0,0,0-.41.37,1.75,1.75,0,0,0-.23.52,3.07,3.07,0,0,0-.07.6,2.49,2.49,0,0,0,.08.61,1.51,1.51,0,0,0,.24.53,1.22,1.22,0,0,0,.42.36,1.33,1.33,0,0,0,.63.14,1.25,1.25,0,0,0,.61-.14,1.12,1.12,0,0,0,.4-.38,1.86,1.86,0,0,0,.22-.54,3.1,3.1,0,0,0,.07-.62A2.39,2.39,0,0,0,120.42,42.53Z" style="fill: #28275b"></path><path d="M125.26,45.05a1.93,1.93,0,0,1-1.22.37,2.22,2.22,0,0,1-.9-.17,1.69,1.69,0,0,1-.64-.47,1.93,1.93,0,0,1-.39-.72,3.27,3.27,0,0,1-.15-.91,2.67,2.67,0,0,1,.15-.91,2,2,0,0,1,.43-.71,1.87,1.87,0,0,1,.64-.47,2,2,0,0,1,.82-.16,1.89,1.89,0,0,1,1,.23,2.09,2.09,0,0,1,.61.61,2.35,2.35,0,0,1,.31.81,3.4,3.4,0,0,1,.08.82h-3.24a1.6,1.6,0,0,0,.06.54,1.15,1.15,0,0,0,.25.46,1.21,1.21,0,0,0,.42.31,1.44,1.44,0,0,0,.61.12,1.2,1.2,0,0,0,.74-.21,1,1,0,0,0,.39-.64h.7A1.73,1.73,0,0,1,125.26,45.05Zm-.17-2.78a1.16,1.16,0,0,0-.26-.39,1.22,1.22,0,0,0-.38-.26,1.34,1.34,0,0,0-.49-.1,1.31,1.31,0,0,0-.5.1,1,1,0,0,0-.38.26,1.66,1.66,0,0,0-.26.39,1.52,1.52,0,0,0-.1.48h2.48A1.53,1.53,0,0,0,125.09,42.27Z" style="fill: #28275b"></path><path d="M127.56,39.35v6h-.72v-6Z" style="fill: #28275b"></path><path d="M129.53,39.35v6h-.72v-6Z" style="fill: #28275b"></path><path d="M133.8,45.05a1.93,1.93,0,0,1-1.22.37,2.26,2.26,0,0,1-.9-.17,1.78,1.78,0,0,1-.64-.47,2.08,2.08,0,0,1-.39-.72,3.68,3.68,0,0,1-.15-.91,2.67,2.67,0,0,1,.15-.91,2.41,2.41,0,0,1,.43-.71,1.87,1.87,0,0,1,.64-.47,2,2,0,0,1,.82-.16,1.89,1.89,0,0,1,1,.23,2,2,0,0,1,.61.61,2.59,2.59,0,0,1,.32.81,3.37,3.37,0,0,1,.07.82h-3.24a1.9,1.9,0,0,0,.06.54,1.29,1.29,0,0,0,.25.46,1.21,1.21,0,0,0,.42.31,1.49,1.49,0,0,0,.62.12,1.24,1.24,0,0,0,.74-.21,1,1,0,0,0,.38-.64h.7A1.69,1.69,0,0,1,133.8,45.05Zm-.17-2.78a1.16,1.16,0,0,0-.26-.39,1.22,1.22,0,0,0-.38-.26,1.28,1.28,0,0,0-1,0,1,1,0,0,0-.38.26,1.36,1.36,0,0,0-.25.39,1.3,1.3,0,0,0-.11.48h2.49A1.54,1.54,0,0,0,133.63,42.27Z" style="fill: #28275b"></path><path d="M135.89,44.36a.81.81,0,0,0,.26.26,1.35,1.35,0,0,0,.37.14,3,3,0,0,0,.43,0l.35,0a.9.9,0,0,0,.33-.09.57.57,0,0,0,.26-.2.48.48,0,0,0,.1-.33.46.46,0,0,0-.21-.41,1.67,1.67,0,0,0-.52-.24c-.21,0-.44-.11-.68-.15a3.48,3.48,0,0,1-.69-.21,1.28,1.28,0,0,1-.52-.36.94.94,0,0,1-.21-.65,1,1,0,0,1,.15-.56,1.15,1.15,0,0,1,.37-.39,1.83,1.83,0,0,1,.52-.21,2.36,2.36,0,0,1,.58-.07,3.66,3.66,0,0,1,.68.06,1.37,1.37,0,0,1,.54.22,1,1,0,0,1,.38.42,1.38,1.38,0,0,1,.17.65h-.71a.68.68,0,0,0-.11-.34.72.72,0,0,0-.23-.23,1.52,1.52,0,0,0-.32-.12,2,2,0,0,0-.34,0l-.33,0a1.1,1.1,0,0,0-.29.09.52.52,0,0,0-.22.16.41.41,0,0,0-.09.28.42.42,0,0,0,.13.3,1.08,1.08,0,0,0,.33.2,2.77,2.77,0,0,0,.46.14l.5.11.52.14a1.88,1.88,0,0,1,.45.22,1.06,1.06,0,0,1,.32.35,1,1,0,0,1,.13.52,1.18,1.18,0,0,1-.17.65,1.15,1.15,0,0,1-.43.42,1.82,1.82,0,0,1-.59.23,3.68,3.68,0,0,1-.66.06,3,3,0,0,1-.68-.08,1.77,1.77,0,0,1-.58-.24,1.27,1.27,0,0,1-.4-.46,1.39,1.39,0,0,1-.17-.68h.71A.82.82,0,0,0,135.89,44.36Z" style="fill: #28275b"></path></g></g><path d="M46.65,14.94,44,13.35V7.88H38.78v2.77l-8-4.36a5,5,0,0,0-4.84,0L10.08,14.94a3,3,0,0,0-1.56,2.67L8.63,35v.09c1.07,9.1,9.55,16,19.73,16s18.66-6.86,19.73-16L48.2,17.6A3,3,0,0,0,46.65,14.94ZM10.83,16.27,26.69,7.63a3.44,3.44,0,0,1,3.35,0l10.29,5.61V9.41h2.08v4.81l3.46,2h0a1.52,1.52,0,0,1,.77,1.33l-.09,15c-5-.16-9.25,1.19-12.47,4a18.52,18.52,0,0,0-4.87,7.16l0-4.76a29.07,29.07,0,0,1,4.26-6.55c.73-.5,2.46-1.43,3.59-.94l.62-1.4a3.32,3.32,0,0,0-1.27-.26,8,8,0,0,1,3.72-1.35L40.05,27c-3,.22-5.59,2.12-7.59,4.33h0a28.25,28.25,0,0,0-3.19,4.38l.07-16.49H27.79l-.05,11.06c-.51-.55-1.14-1.19-1.86-1.83-.18-2.05-.43-3.86-.44-3.88l-1.53.21s.14,1,.28,2.32c-1.84-1.31-4-2.25-6-1.76l.37,1.48c3.16-.76,7.58,3.84,9.12,5.8l0,10.43a17,17,0,0,0-4.49-6.71l-.14-.11,0,0a12,12,0,0,1-1.75-4.85l-1.54.19a18.3,18.3,0,0,0,.7,2.9,18.58,18.58,0,0,0-10.34-1.91l-.1-15A1.52,1.52,0,0,1,10.83,16.27Zm-.66,18.65V34.1c5-.37,9,.76,12,3.39,4.2,3.73,5.2,9.53,5.43,12C18.56,49.12,11.14,43,10.17,34.92ZM29.34,49.45a21.76,21.76,0,0,1,3.12-8.54h0s3.43-2.37,5.93-.65L39.28,39a5.62,5.62,0,0,0-4.74-.68c.19-.19.38-.38.59-.56,2.92-2.58,6.76-3.8,11.43-3.65v.79C45.59,42.94,38.27,49,29.34,49.45Z" style="fill: #28275b"></path><rect width="147.4" height="56.69" style="fill: none"></rect></g></g></g></svg> 